<?xml version="1.0" encoding="UTF-8" standalone="no"?>
<!-- Generator: Adobe Illustrator 19.0.0, SVG Export Plug-In . SVG Version: 6.00 Build 0)  -->

<svg
   xmlns:dc="http://purl.org/dc/elements/1.1/"
   xmlns:cc="http://creativecommons.org/ns#"
   xmlns:rdf="http://www.w3.org/1999/02/22-rdf-syntax-ns#"
   xmlns:svg="http://www.w3.org/2000/svg"
   xmlns="http://www.w3.org/2000/svg"
   xmlns:xlink="http://www.w3.org/1999/xlink"
   xmlns:sodipodi="http://sodipodi.sourceforge.net/DTD/sodipodi-0.dtd"
   xmlns:inkscape="http://www.inkscape.org/namespaces/inkscape"
   version="1.1"
   id="Calque_1"
   x="0px"
   y="0px"
   viewBox="0 0 800 600"
   style="enable-background:new 0 0 800 600;"
   xml:space="preserve"
   sodipodi:docname="hashelot-platforms.svg"
   inkscape:version="0.92.4 (5da689c313, 2019-01-14)"><metadata
   id="metadata52"><rdf:RDF><cc:Work
       rdf:about=""><dc:format>image/svg+xml</dc:format><dc:type
         rdf:resource="http://purl.org/dc/dcmitype/StillImage" /></cc:Work></rdf:RDF></metadata><defs
   id="defs50"><marker
     inkscape:isstock="true"
     inkscape:stockid="DistanceStart"
     orient="auto"
     refY="0.0"
     refX="0.0"
     id="marker3782"
     style="overflow:visible"><g
       style="stroke:#253fa8;stroke-opacity:1;fill:#6f9aea;fill-opacity:1"
       id="g3780"><path
         id="path3774"
         d="M 0,0 L 2,0"
         style="fill:#6f9aea;stroke:#253fa8;stroke-width:1.15;stroke-linecap:square;stroke-opacity:1;fill-opacity:1" /><path
         id="path3776"
         d="M 0,0 L 13,4 L 9,0 13,-4 L 0,0 z "
         style="fill:#6f9aea;fill-rule:evenodd;stroke:#253fa8;stroke-opacity:1;fill-opacity:1" /><path
         id="path3778"
         d="M 0,-4 L 0,40"
         style="fill:#6f9aea;stroke:#253fa8;stroke-width:1;stroke-linecap:square;stroke-opacity:1;fill-opacity:1" /></g></marker><marker
     inkscape:isstock="true"
     inkscape:stockid="DistanceStart"
     orient="auto"
     refY="0.0"
     refX="0.0"
     id="marker3607"
     style="overflow:visible"><g
       style="stroke:#253fa8;stroke-opacity:1;fill:#6f9aea;fill-opacity:1"
       id="g3605"><path
         id="path3599"
         d="M 0,0 L 2,0"
         style="fill:#6f9aea;stroke:#253fa8;stroke-width:1.15;stroke-linecap:square;stroke-opacity:1;fill-opacity:1" /><path
         id="path3601"
         d="M 0,0 L 13,4 L 9,0 13,-4 L 0,0 z "
         style="fill:#6f9aea;fill-rule:evenodd;stroke:#253fa8;stroke-opacity:1;fill-opacity:1" /><path
         id="path3603"
         d="M 0,-4 L 0,40"
         style="fill:#6f9aea;stroke:#253fa8;stroke-width:1;stroke-linecap:square;stroke-opacity:1;fill-opacity:1" /></g></marker><marker
     inkscape:isstock="true"
     inkscape:stockid="DistanceStart"
     orient="auto"
     refY="0.0"
     refX="0.0"
     id="marker3447"
     style="overflow:visible"><g
       style="stroke:#253fa8;stroke-opacity:1;fill:#a19ce2;fill-opacity:1"
       id="g3445"><path
         id="path3439"
         d="M 0,0 L 2,0"
         style="fill:#a19ce2;stroke:#253fa8;stroke-width:1.15;stroke-linecap:square;stroke-opacity:1;fill-opacity:1" /><path
         id="path3441"
         d="M 0,0 L 13,4 L 9,0 13,-4 L 0,0 z "
         style="fill:#a19ce2;fill-rule:evenodd;stroke:#253fa8;stroke-opacity:1;fill-opacity:1" /><path
         id="path3443"
         d="M 0,-4 L 0,40"
         style="fill:#a19ce2;stroke:#253fa8;stroke-width:1;stroke-linecap:square;stroke-opacity:1;fill-opacity:1" /></g></marker><marker
     inkscape:isstock="true"
     inkscape:stockid="DistanceStart"
     orient="auto"
     refY="0.0"
     refX="0.0"
     id="marker3302"
     style="overflow:visible"><g
       style="stroke:#253fa8;stroke-opacity:1;fill:#53d4dc;fill-opacity:1"
       id="g3300"><path
         id="path3294"
         d="M 0,0 L 2,0"
         style="fill:#53d4dc;stroke:#253fa8;stroke-width:1.15;stroke-linecap:square;stroke-opacity:1;fill-opacity:1" /><path
         id="path3296"
         d="M 0,0 L 13,4 L 9,0 13,-4 L 0,0 z "
         style="fill:#53d4dc;fill-rule:evenodd;stroke:#253fa8;stroke-opacity:1;fill-opacity:1" /><path
         id="path3298"
         d="M 0,-4 L 0,40"
         style="fill:#53d4dc;stroke:#253fa8;stroke-width:1;stroke-linecap:square;stroke-opacity:1;fill-opacity:1" /></g></marker><marker
     inkscape:isstock="true"
     inkscape:stockid="DistanceStart"
     orient="auto"
     refY="0.0"
     refX="0.0"
     id="marker3277"
     style="overflow:visible"><g
       style="stroke:#253fa8;stroke-opacity:1;fill:#a19ce2;fill-opacity:1"
       id="g3275"><path
         id="path3269"
         d="M 0,0 L 2,0"
         style="fill:#a19ce2;stroke:#253fa8;stroke-width:1.15;stroke-linecap:square;stroke-opacity:1;fill-opacity:1" /><path
         id="path3271"
         d="M 0,0 L 13,4 L 9,0 13,-4 L 0,0 z "
         style="fill:#a19ce2;fill-rule:evenodd;stroke:#253fa8;stroke-opacity:1;fill-opacity:1" /><path
         id="path3273"
         d="M 0,-4 L 0,40"
         style="fill:#a19ce2;stroke:#253fa8;stroke-width:1;stroke-linecap:square;stroke-opacity:1;fill-opacity:1" /></g></marker><marker
     inkscape:isstock="true"
     inkscape:stockid="DistanceStart"
     orient="auto"
     refY="0.0"
     refX="0.0"
     id="marker3002"
     style="overflow:visible"><g
       style="stroke:#253fa8;stroke-opacity:1;fill:#6f9aea;fill-opacity:1"
       id="g3000"><path
         id="path2994"
         d="M 0,0 L 2,0"
         style="fill:#6f9aea;stroke:#253fa8;stroke-width:1.15;stroke-linecap:square;stroke-opacity:1;fill-opacity:1" /><path
         id="path2996"
         d="M 0,0 L 13,4 L 9,0 13,-4 L 0,0 z "
         style="fill:#6f9aea;fill-rule:evenodd;stroke:#253fa8;stroke-opacity:1;fill-opacity:1" /><path
         id="path2998"
         d="M 0,-4 L 0,40"
         style="fill:#6f9aea;stroke:#253fa8;stroke-width:1;stroke-linecap:square;stroke-opacity:1;fill-opacity:1" /></g></marker><marker
     inkscape:isstock="true"
     inkscape:stockid="DistanceStart"
     orient="auto"
     refY="0.0"
     refX="0.0"
     id="marker2902"
     style="overflow:visible"><g
       style="stroke:#253fa8;stroke-opacity:1;fill:#6f9aea;fill-opacity:1"
       id="g2900"><path
         id="path2894"
         d="M 0,0 L 2,0"
         style="fill:#6f9aea;stroke:#253fa8;stroke-width:1.15;stroke-linecap:square;stroke-opacity:1;fill-opacity:1" /><path
         id="path2896"
         d="M 0,0 L 13,4 L 9,0 13,-4 L 0,0 z "
         style="fill:#6f9aea;fill-rule:evenodd;stroke:#253fa8;stroke-opacity:1;fill-opacity:1" /><path
         id="path2898"
         d="M 0,-4 L 0,40"
         style="fill:#6f9aea;stroke:#253fa8;stroke-width:1;stroke-linecap:square;stroke-opacity:1;fill-opacity:1" /></g></marker><marker
     inkscape:isstock="true"
     inkscape:stockid="DistanceStart"
     orient="auto"
     refY="0.0"
     refX="0.0"
     id="marker2817"
     style="overflow:visible"><g
       style="stroke:#253fa8;stroke-opacity:1;fill:#a19ce2;fill-opacity:1"
       id="g2815"><path
         id="path2809"
         d="M 0,0 L 2,0"
         style="fill:#a19ce2;stroke:#253fa8;stroke-width:1.15;stroke-linecap:square;stroke-opacity:1;fill-opacity:1" /><path
         id="path2811"
         d="M 0,0 L 13,4 L 9,0 13,-4 L 0,0 z "
         style="fill:#a19ce2;fill-rule:evenodd;stroke:#253fa8;stroke-opacity:1;fill-opacity:1" /><path
         id="path2813"
         d="M 0,-4 L 0,40"
         style="fill:#a19ce2;stroke:#253fa8;stroke-width:1;stroke-linecap:square;stroke-opacity:1;fill-opacity:1" /></g></marker><marker
     inkscape:isstock="true"
     inkscape:stockid="DistanceStart"
     orient="auto"
     refY="0.0"
     refX="0.0"
     id="marker2747"
     style="overflow:visible"><g
       style="stroke:#253fa8;stroke-opacity:1;fill:#53d4dc;fill-opacity:1"
       id="g2745"><path
         id="path2739"
         d="M 0,0 L 2,0"
         style="fill:#53d4dc;stroke:#253fa8;stroke-width:1.15;stroke-linecap:square;stroke-opacity:1;fill-opacity:1" /><path
         id="path2741"
         d="M 0,0 L 13,4 L 9,0 13,-4 L 0,0 z "
         style="fill:#53d4dc;fill-rule:evenodd;stroke:#253fa8;stroke-opacity:1;fill-opacity:1" /><path
         id="path2743"
         d="M 0,-4 L 0,40"
         style="fill:#53d4dc;stroke:#253fa8;stroke-width:1;stroke-linecap:square;stroke-opacity:1;fill-opacity:1" /></g></marker><marker
     inkscape:isstock="true"
     inkscape:stockid="DistanceStart"
     orient="auto"
     refY="0.0"
     refX="0.0"
     id="marker2692"
     style="overflow:visible"><g
       style="stroke:#253fa8;stroke-opacity:1;fill:#a19ce2;fill-opacity:1"
       id="g2690"><path
         id="path2684"
         d="M 0,0 L 2,0"
         style="fill:#a19ce2;stroke:#253fa8;stroke-width:1.15;stroke-linecap:square;stroke-opacity:1;fill-opacity:1" /><path
         id="path2686"
         d="M 0,0 L 13,4 L 9,0 13,-4 L 0,0 z "
         style="fill:#a19ce2;fill-rule:evenodd;stroke:#253fa8;stroke-opacity:1;fill-opacity:1" /><path
         id="path2688"
         d="M 0,-4 L 0,40"
         style="fill:#a19ce2;stroke:#253fa8;stroke-width:1;stroke-linecap:square;stroke-opacity:1;fill-opacity:1" /></g></marker><clipPath
     id="SVGID_10_"><use
       height="100%"
       width="100%"
       y="0"
       x="0"
       style="overflow:visible"
       xlink:href="#SVGID_9_"
       overflow="visible"
       id="use49" /></clipPath><clipPath
     id="SVGID_8_"><use
       height="100%"
       width="100%"
       y="0"
       x="0"
       style="overflow:visible"
       xlink:href="#SVGID_7_"
       overflow="visible"
       id="use39" /></clipPath><clipPath
     id="SVGID_6_"><use
       height="100%"
       width="100%"
       y="0"
       x="0"
       style="overflow:visible"
       xlink:href="#SVGID_5_"
       overflow="visible"
       id="use29" /></clipPath><clipPath
     id="SVGID_4_"><use
       height="100%"
       width="100%"
       y="0"
       x="0"
       style="overflow:visible"
       xlink:href="#SVGID_3_"
       overflow="visible"
       id="use19" /></clipPath><clipPath
     id="SVGID_2_"><use
       height="100%"
       width="100%"
       y="0"
       x="0"
       style="overflow:visible"
       xlink:href="#SVGID_1_"
       overflow="visible"
       id="use9" /></clipPath><path
     inkscape:connector-curvature="0"
     id="SVGID_1_"
     d="m 720.6,306.4 h 508.7 v 266 H 720.6 Z" /><path
     inkscape:connector-curvature="0"
     id="SVGID_3_"
     d="M 720.6,0 H 975 V 572.4 H 720.6 Z" /><path
     inkscape:connector-curvature="0"
     id="SVGID_5_"
     d="m 975,0 h 254.4 V 572.4 H 975 Z" /><path
     inkscape:connector-curvature="0"
     id="SVGID_7_"
     d="M 720.6,470.3 H 975 V 828.7 H 720.6 Z" /><path
     inkscape:connector-curvature="0"
     id="SVGID_9_"
     d="m 975,470.3 h 254.5 V 828.7 H 975 Z" /><pattern
     patternUnits="userSpaceOnUse"
     width="49.32933"
     height="47.69154"
     patternTransform="translate(-208.64294,173.80412)"
     id="pattern4137"><ellipse
       ry="21.84577"
       rx="22.664665"
       cy="23.84577"
       cx="24.664665"
       id="path2364"
       style="opacity:0.71499999;fill:none;fill-opacity:1;fill-rule:nonzero;stroke:#ffe813;stroke-width:4;stroke-linecap:round;stroke-linejoin:bevel;stroke-miterlimit:10;stroke-dasharray:none;stroke-opacity:1;paint-order:fill markers stroke" /></pattern><pattern
     patternUnits="userSpaceOnUse"
     width="49.32933"
     height="47.69154"
     patternTransform="translate(-208.64294,173.80412)"
     id="pattern4137-3"><ellipse
       ry="21.84577"
       rx="22.664665"
       cy="23.84577"
       cx="24.664665"
       id="path2364-0"
       style="opacity:0.71499999;fill:none;fill-opacity:1;fill-rule:nonzero;stroke:#ffe813;stroke-width:4;stroke-linecap:round;stroke-linejoin:bevel;stroke-miterlimit:10;stroke-dasharray:none;stroke-opacity:1;paint-order:fill markers stroke" /></pattern><pattern
     patternUnits="userSpaceOnUse"
     width="49.32933"
     height="47.69154"
     patternTransform="translate(-208.64294,173.80412)"
     id="pattern4137-6"><ellipse
       ry="21.84577"
       rx="22.664665"
       cy="23.84577"
       cx="24.664665"
       id="path2364-3"
       style="opacity:0.71499999;fill:none;fill-opacity:1;fill-rule:nonzero;stroke:#ffe813;stroke-width:4;stroke-linecap:round;stroke-linejoin:bevel;stroke-miterlimit:10;stroke-dasharray:none;stroke-opacity:1;paint-order:fill markers stroke" /></pattern></defs><sodipodi:namedview
   pagecolor="#ffffff"
   bordercolor="#666666"
   borderopacity="1"
   objecttolerance="10"
   gridtolerance="10"
   guidetolerance="10"
   inkscape:pageopacity="0"
   inkscape:pageshadow="2"
   inkscape:window-width="1825"
   inkscape:window-height="1046"
   id="namedview48"
   showgrid="false"
   inkscape:zoom="4.759363"
   inkscape:cx="510.93581"
   inkscape:cy="188.7418"
   inkscape:window-x="84"
   inkscape:window-y="-11"
   inkscape:window-maximized="1"
   inkscape:current-layer="Calque_1" />
<style
   type="text/css"
   id="style2">
	.st0{fill:none;stroke:#5D5C74;stroke-width:4;stroke-miterlimit:10;}
	.st1{fill:#4FC1EA;stroke:#5D5C74;stroke-width:3;stroke-miterlimit:10;}
	.st2{fill:#5C5C74;}
	.st3{fill:#344258;stroke:#5D5C74;stroke-width:4;stroke-miterlimit:10;}
	.st4{fill:#FBD7CE;}
	.st5{fill:#E4E6E9;}
	.st6{fill:#CDCFD2;}
	.st7{fill:#5D5C74;}
	.st8{fill:#FFFFFF;}
	.st9{fill:#DFE1E2;}
	.st10{fill:#EDEEEF;}
	.st11{fill:none;stroke:#5D5C74;stroke-width:3;stroke-miterlimit:10;}
	.st12{fill:none;stroke:#F39200;stroke-width:3;stroke-miterlimit:10;}
	.st13{fill:none;stroke:#4FC1EB;stroke-width:3;stroke-miterlimit:10;}
</style>

<g
   id="g1458"
   transform="rotate(5.3653881,516.19456,523.92473)"><path
     id="rect1211-8-2"
     d="m 155.93987,151.33252 c -23.56988,5.01836 -38.50443,28.03281 -33.48606,51.60272 l 71.79656,337.20903 c 5.01836,23.5699 28.03279,38.50448 51.60267,33.48612 L 650.33925,487.50957 720.17017,379.90135 658.2047,88.866312 c -5.01836,-23.56991 -28.03281,-38.504477 -51.60272,-33.48611 z"
     style="fill:#a4a4a4;fill-opacity:1;fill-rule:evenodd"
     inkscape:connector-curvature="0" /><path
     inkscape:connector-curvature="0"
     id="rect1211-0-8-5"
     d="m 650.33925,487.50957 69.83092,-107.60822 -46.17591,9.83151 c -23.56991,5.01836 -38.50447,28.03282 -33.48611,51.60272 z"
     style="fill:#474747;fill-opacity:1;fill-rule:evenodd" /></g><g
   id="g1270"
   transform="rotate(20.87568,936.06348,3767.9566)"><path
     id="rect1211-8"
     d="m -1042.3555,517.83605 c -24.0982,0 -43.498,19.39982 -43.498,43.49805 v 344.76757 c 0,24.09822 19.3998,43.49805 43.498,43.49805 h 413.55276 l 90.70899,-90.70703 V 561.3341 c 0,-24.09823 -19.39982,-43.49805 -43.49805,-43.49805 z"
     style="fill:#cdcdcd;fill-opacity:1;fill-rule:evenodd"
     inkscape:connector-curvature="0" /><path
     inkscape:connector-curvature="0"
     id="rect1211-0-8"
     d="m -628.80274,949.59972 90.70899,-90.70703 h -47.21094 c -24.09823,0 -43.49805,19.39983 -43.49805,43.49805 z"
     style="fill:#5c5c5c;fill-opacity:1;fill-rule:evenodd" /></g><path
   inkscape:connector-curvature="0"
   style="fill:#cae6ed;fill-opacity:1;fill-rule:evenodd"
   d="M 158.2276,55.282949 C 134.14779,54.341537 114.00489,72.968683 113.06348,97.048521 L 99.594917,441.55291 c -0.941412,24.07983 17.685753,44.22271 41.765563,45.16413 L 554.59753,502.87273 648.7808,415.77855 660.40511,118.4471 C 661.34653,94.367259 642.71938,74.224381 618.63955,73.282969 Z"
   id="rect1211" /><g
   id="g5346"
   transform="matrix(0.88511944,0.17626628,-0.17626628,0.88511944,155.61261,77.325669)"><path
     sodipodi:nodetypes="cccc"
     inkscape:connector-curvature="0"
     id="rect866-4-1"
     d="m 147.23021,155.9274 c -0.0332,-0.20824 -103.840141,49.17375 -103.840141,49.17375 l 103.840141,57.20813 c 0,0 0.0332,-106.17363 0,-106.38188 z"
     style="display:inline;fill:#6f9aea;fill-opacity:1;fill-rule:evenodd;stroke:#253fa8;stroke-width:3;stroke-linecap:square;stroke-linejoin:bevel;stroke-miterlimit:10;stroke-dasharray:none;stroke-dashoffset:0;stroke-opacity:1;paint-order:fill markers stroke" /><path
     sodipodi:nodetypes="cccc"
     inkscape:connector-curvature="0"
     id="rect866-4"
     d="m 147.25968,155.9274 c 0.0331,-0.20823 103.84014,49.17375 103.84014,49.17375 l -103.84014,57.20813 c 0,0 -0.0332,-106.17363 0,-106.38188 z"
     style="display:inline;fill:#a19ce2;fill-opacity:1;fill-rule:evenodd;stroke:#253fa8;stroke-width:3;stroke-linecap:square;stroke-linejoin:bevel;stroke-miterlimit:10;stroke-dasharray:none;stroke-dashoffset:0;stroke-opacity:1;paint-order:fill markers stroke" /><path
     sodipodi:nodetypes="cccc"
     inkscape:connector-curvature="0"
     id="rect866"
     d="M 147.25968,33.016443 C 147.29278,32.774988 251.0972,205.10397 251.0972,205.10397 L 147.25968,156.35396 c 0,0 -0.0332,-123.096088 0,-123.337517 z"
     style="display:inline;fill:#53d4dc;fill-opacity:1;fill-rule:evenodd;stroke:#253fa8;stroke-width:3;stroke-linecap:square;stroke-linejoin:bevel;stroke-miterlimit:10;stroke-dasharray:none;stroke-dashoffset:0;stroke-opacity:1;paint-order:fill markers stroke" /><path
     sodipodi:nodetypes="cccc"
     inkscape:connector-curvature="0"
     id="rect866-4-7"
     d="m 147.25968,360.5622 c 0.0331,0.16214 103.85366,-139.0413 103.85366,-139.0413 l -103.85366,56.27427 c 0,0 -0.0332,82.605 0,82.76703 z"
     style="display:inline;fill:#a19ce2;fill-opacity:1;fill-rule:evenodd;stroke:#253fa8;stroke-width:3;stroke-linecap:square;stroke-linejoin:bevel;stroke-miterlimit:10;stroke-dasharray:none;stroke-dashoffset:0;stroke-opacity:1;paint-order:fill markers stroke" /><path
     sodipodi:nodetypes="cccc"
     inkscape:connector-curvature="0"
     id="rect866-47"
     d="M 147.23021,33.016443 C 147.19706,32.774988 43.392679,205.10397 43.392679,205.10397 L 147.23021,156.35396 c 0,0 0.0332,-123.096088 0,-123.337517 z"
     style="display:inline;fill:#a19ce2;fill-opacity:1;fill-rule:evenodd;stroke:#253fa8;stroke-width:3;stroke-linecap:square;stroke-linejoin:bevel;stroke-miterlimit:10;stroke-dasharray:none;stroke-dashoffset:0;stroke-opacity:1;paint-order:fill markers stroke" /><path
     sodipodi:nodetypes="cccc"
     inkscape:connector-curvature="0"
     id="rect866-4-7-4"
     d="M 147.23021,360.5622 C 147.19706,360.72434 43.376539,221.5209 43.376539,221.5209 l 103.853671,56.27427 c 0,0 0.0332,82.605 0,82.76703 z"
     style="display:inline;fill:#6f9aea;fill-opacity:1;fill-rule:evenodd;stroke:#253fa8;stroke-width:3;stroke-linecap:square;stroke-linejoin:bevel;stroke-miterlimit:10;stroke-dasharray:none;stroke-dashoffset:0;stroke-opacity:1;paint-order:fill markers stroke" /></g><path
   style="fill:#2e7689;fill-opacity:1;fill-rule:evenodd"
   d="m 554.59753,502.87273 94.18327,-87.09418 -47.1749,-1.84433 c -24.07983,-0.94141 -44.22271,17.68574 -45.16412,41.76557 z"
   id="rect1211-0"
   inkscape:connector-curvature="0" /><path
   style="opacity:0.49799996;fill:#2e7689;fill-opacity:1;fill-rule:evenodd;stroke-width:0.87367821"
   d="M 385.01367 118.76758 L 384.35742 139.70117 L 443.14453 141.54492 L 443.14453 120.58984 L 385.01367 118.76758 z M 473.33398 121.53711 L 473.33398 142.49023 L 592.08203 146.21289 L 592.73828 125.2793 L 473.33398 121.53711 z M 391.58203 150.5 L 390.92578 171.43359 L 499.25 174.83008 L 499.25 153.875 L 391.58203 150.5 z M 545.38672 155.32227 L 545.38672 176.27539 L 598.65039 177.94531 L 599.30664 157.01172 L 545.38672 155.32227 z M 383.31836 178.74414 L 382.66211 199.67773 L 590.38672 206.1875 L 591.04297 185.25391 L 383.31836 178.74414 z M 389.88672 210.47656 L 389.23047 231.41016 L 596.95508 237.91992 L 597.61133 216.98633 L 389.88672 210.47656 z M 381.99023 238.72852 L 381.33398 259.66211 L 422.92383 260.9668 L 422.92383 240.01172 L 381.99023 238.72852 z M 440.58203 240.56445 L 440.58203 261.51953 L 589.05859 266.17383 L 589.71484 245.24023 L 440.58203 240.56445 z M 388.55664 270.46094 L 387.90234 291.39453 L 491.8457 294.65234 L 491.8457 273.69922 L 388.55664 270.46094 z M 524.88281 274.73438 L 524.88281 295.6875 L 595.62695 297.9043 L 596.28125 276.97266 L 524.88281 274.73438 z M 380.66016 298.71484 L 380.00391 319.64844 L 587.72852 326.1582 L 588.38477 305.22461 L 380.66016 298.71484 z M 387.22852 330.44727 L 386.57227 351.37891 L 492.69922 354.70508 L 492.69922 333.75195 L 387.22852 330.44727 z "
   id="rect1272" /><path
   style="fill:#2b6d7e;fill-opacity:1;fill-rule:evenodd;opacity:0.15"
   d="M 591.34766 72.216797 L 363.98828 495.41992 L 554.59766 502.87305 L 648.78125 415.7793 L 660.4043 118.44727 C 661.34572 94.367426 642.7185 74.224613 618.63867 73.283203 L 591.34766 72.216797 z "
   id="rect1211-1" /><path
   style="fill:#eefafd;fill-opacity:1;fill-rule:evenodd;opacity:0.25"
   d="M 155.98242 55.251953 C 132.90791 55.511423 113.97644 73.721481 113.06445 97.048828 L 99.595703 441.55273 C 98.654283 465.63256 117.28152 485.77538 141.36133 486.7168 L 158.71484 487.39453 L 315.71875 61.439453 L 158.22852 55.283203 C 157.47602 55.253784 156.72676 55.243583 155.98242 55.251953 z "
   id="rect1211-2" /><rect
   style="fill:#7caebb;fill-opacity:1;fill-rule:evenodd"
   id="rect1209"
   width="176.4942"
   height="3.3617945"
   x="388.72757"
   y="416.43884"
   transform="rotate(2.5307172)" /><g
   aria-label="Hashelot"
   transform="matrix(1.5775524,-0.07423037,0.07455728,1.5844998,-429.94524,-588.22152)"
   style="font-style:normal;font-weight:normal;font-size:40px;line-height:1.25;font-family:sans-serif;letter-spacing:0px;word-spacing:0px;fill:#474747;fill-opacity:1;stroke:none"
   id="flowRoot1201"><path
     d="m 499.39258,659.67578 q -4.02344,0.82031 -8.33985,2.53906 -0.15625,0.3125 -0.3125,0.64453 -2.69531,5.17579 -3.63281,9.80469 -0.19531,1.09375 -0.8789,1.09375 -0.50782,0 -0.89844,-0.50781 -0.3125,-0.39063 -0.3125,-0.83984 0,-0.54688 0.48828,-2.26563 0.48828,-1.73828 1.01562,-3.04687 0.19532,-0.48829 1.23047,-2.85157 0.25391,-0.5664 0.50782,-1.1914 -0.41016,0.15625 -1.13282,0.46875 -0.3125,0.13672 -0.5664,0.13672 -0.60547,0 -0.60547,-0.91797 0,-0.60547 0.50781,-0.91797 0.39063,-0.25391 1.38672,-0.60547 1.05469,-0.39063 1.66016,-0.64453 0.39062,-0.6836 1.48437,-2.8125 0.19531,-0.39063 1.30859,-2.22656 3.1836,-5.35157 4.14063,-7.61719 0.87891,-2.05078 1.09375,-2.32422 0.39062,-0.50781 0.9375,-0.50781 0.91797,0 0.91797,0.89843 0,2.05079 -5.58594,11.07422 -0.91797,1.48438 -1.34766,2.57813 l 0.97657,-0.27344 q 3.98437,-1.15234 7.24609,-2.01172 2.24609,-4.14062 5.50781,-9.17969 0.56641,-0.89843 0.66407,-1.11328 0.46875,-0.83984 0.99609,-0.83984 0.44922,0 0.74219,0.37109 0.23437,0.3125 0.23437,0.6836 0,0.70312 -0.76172,2.01172 -0.17578,0.3125 -1.60156,2.5 -2.5,3.86718 -3.14453,5.17578 0.56641,-0.0586 0.85937,-0.0586 1.54297,0 1.54297,0.76172 0,0.46875 -0.48828,0.91797 -0.37109,0.35156 -0.82031,0.35156 h -0.76172 q -0.46875,0 -1.40625,0.17578 -4.14062,7.38282 -5.41016,12.94922 -0.3125,1.25 -0.97656,1.25 -0.50781,0 -0.95703,-0.64453 -0.29297,-0.44922 -0.29297,-0.95703 0,-1.875 4.78516,-12.03125 z"
     style="font-style:normal;font-variant:normal;font-weight:normal;font-stretch:normal;font-family:'Freestyle Script';-inkscape-font-specification:'Freestyle Script';fill:#474747;fill-opacity:1"
     id="path1247" /><path
     d="m 508.74805,668.46484 q -0.64453,1.13282 -1.26953,1.91407 -1.23047,1.52343 -2.44141,1.52343 -1.05469,0 -1.64063,-0.99609 -0.37109,-0.64453 -0.37109,-1.52344 0,-2.16797 1.36719,-4.78515 1.52344,-2.91016 3.67187,-4.47266 1.40625,-1.01563 2.71485,-1.01563 0.82031,0 1.36718,0.50782 0.46875,0.44922 0.46875,1.01562 0,0.42969 -0.33203,1.19141 0.29297,0.41015 0.29297,0.72265 0,0.41016 -0.54687,1.34766 -0.56641,0.95703 -1.13282,2.53906 -0.60546,1.67969 -0.60546,2.69532 0,0.82031 0.48828,1.34765 0.13672,0.13672 0.80078,0.44922 0.48828,0.23438 0.48828,0.82031 0,0.3711 -0.27344,0.60547 -0.29297,0.25391 -0.68359,0.25391 -1.05469,0 -1.81641,-0.9375 -0.625,-0.76172 -0.625,-1.91406 0,-0.39063 0.0781,-1.28907 z m 2.4414,-6.42578 q -0.23437,-0.42969 -0.50781,-0.625 -0.27344,-0.21484 -0.58594,-0.21484 -1.48437,0 -3.22265,2.59765 -1.91407,2.8711 -1.91407,4.86329 0,0.48828 0.17579,0.74218 0.19531,0.25391 0.5664,0.25391 0.9375,0 2.1875,-1.99219 0.70313,-1.09375 1.73828,-3.22265 0.6836,-1.38672 0.9961,-1.83594 0.15625,-0.23438 0.5664,-0.56641 z"
     style="font-style:normal;font-variant:normal;font-weight:normal;font-stretch:normal;font-family:'Freestyle Script';-inkscape-font-specification:'Freestyle Script';fill:#474747;fill-opacity:1"
     id="path1249" /><path
     d="m 522.36133,658.71875 q 1.21094,0 1.8164,0.42969 0.60547,0.42968 0.60547,1.30859 0,1.15234 -0.85937,2.22656 -0.82031,1.01563 -2.46094,1.64063 -0.89844,0.33203 -1.50391,0.33203 -0.82031,0 -0.82031,-0.72266 0,-0.48828 0.46875,-0.74218 0.11719,-0.0586 1.32813,-0.33204 0.72265,-0.15625 1.32812,-0.68359 0.52735,-0.44922 0.52735,-0.97656 0,-0.41016 -0.23438,-0.60547 -0.23437,-0.19531 -0.70312,-0.19531 -1.13282,0 -2.5,0.91797 -1.58204,1.03515 -1.58204,2.46093 0,1.01563 1.03516,2.53907 1.15234,1.66015 1.15234,2.8125 0,1.71875 -1.52343,2.69531 -0.9375,0.60547 -2.12891,0.60547 -1.875,0 -2.85156,-1.34766 -0.6836,-0.95703 -0.6836,-2.26562 0,-1.52344 0.78125,-2.5586 0.50782,-0.68359 1.05469,-0.68359 0.48828,0 0.48828,0.39062 0,0.15625 -0.17578,0.46875 -0.44922,0.83985 -0.44922,1.97266 0,0.95703 0.6836,1.62109 0.60547,0.58594 1.38672,0.58594 0.76171,0 1.1914,-0.50781 0.35156,-0.42969 0.35156,-1.09375 0,-0.82031 -0.9375,-2.12891 -1.28906,-1.79687 -1.28906,-3.26172 0,-1.95312 2.12891,-3.45703 2.07031,-1.44531 4.375,-1.44531 z"
     style="font-style:normal;font-variant:normal;font-weight:normal;font-stretch:normal;font-family:'Freestyle Script';-inkscape-font-specification:'Freestyle Script';fill:#474747;fill-opacity:1"
     id="path1251" /><path
     d="m 528.29883,663.69922 q 1.44531,-1.50391 2.89062,-2.51953 1.85547,-1.28907 2.65625,-1.28907 0.33203,0 0.64453,0.27344 0.35157,0.3125 0.35157,0.72266 0,0.52734 -0.83985,1.64062 -1.62109,2.14844 -2.46093,3.90625 -0.74219,1.52344 -0.74219,2.07032 0,0.52734 0.50781,0.52734 1.05469,0 3.55469,-3.75 0.50781,-0.76172 0.91797,-0.76172 0.41015,0 0.41015,0.46875 0,0.76172 -1.48437,2.91016 -1.28906,1.875 -2.69531,2.87109 -0.9961,0.68359 -1.79688,0.68359 -0.83984,0 -1.21094,-0.72265 -0.23437,-0.44922 -0.23437,-0.9961 0,-1.73828 1.23047,-3.96484 0.29297,-0.52734 1.75781,-3.00781 -3.98438,2.01172 -6.73828,8.6914 -0.25391,0.76172 -0.78125,0.76172 -0.3711,0 -0.60547,-0.2539 -0.23438,-0.27344 -0.23438,-0.66407 0,-0.64453 1.25,-3.65234 2.32422,-5.58594 4.33594,-9.45312 2.01172,-3.90625 4.47266,-8.10547 0.58594,-1.01563 0.91797,-1.36719 0.33203,-0.35156 0.70312,-0.35156 0.35156,0 0.60547,0.37109 0.19531,0.27344 0.19531,0.625 0,0.54688 -0.625,1.46484 -2.10937,3.26172 -4.19922,7.16797 -2.24609,4.17969 -2.7539,5.70313 z"
     style="font-style:normal;font-variant:normal;font-weight:normal;font-stretch:normal;font-family:'Freestyle Script';-inkscape-font-specification:'Freestyle Script';fill:#474747;fill-opacity:1"
     id="path1253" /><path
     d="m 537.57617,667.9375 v 0.35156 q 0,0.42969 0.21485,0.74219 0.48828,0.72266 1.60156,0.72266 2.4414,0 5.64453,-3.75 0.56641,-0.64454 0.95703,-0.64454 0.21484,0 0.39063,0.21485 0.11718,0.15625 0.11718,0.29297 0,0.76172 -1.875,2.57812 -1.46484,1.42578 -3.125,2.32422 -1.66015,0.89844 -3.08593,0.89844 -1.46485,0 -2.30469,-1.01563 -0.56641,-0.70312 -0.56641,-1.91406 0,-3.30078 3.10547,-6.46484 2.51953,-2.57813 4.39453,-2.57813 0.50781,0 0.91797,0.3125 0.50781,0.41016 0.50781,1.07422 0,1.03516 -0.95703,2.53906 -1.97265,3.125 -5.9375,4.31641 z m 0.42969,-1.52344 q 1.36719,-0.46875 2.14844,-1.05469 1.36718,-1.05468 2.16797,-2.38281 0.29296,-0.46875 0.29296,-0.83984 0,-0.39063 -0.37109,-0.39063 -0.50781,0 -1.44531,0.76172 -1.67969,1.34766 -2.79297,3.90625 z"
     style="font-style:normal;font-variant:normal;font-weight:normal;font-stretch:normal;font-family:'Freestyle Script';-inkscape-font-specification:'Freestyle Script';fill:#474747;fill-opacity:1"
     id="path1255" /><path
     d="m 550.27148,665.20312 q -0.58593,1.52344 -0.8789,2.46094 -0.29297,0.9375 -0.29297,1.3086 0,0.48828 0.46875,0.48828 0.70312,0 1.81641,-1.32813 0.52734,-0.64453 1.5625,-2.32422 0.41015,-0.66406 0.85937,-0.66406 0.50781,0 0.50781,0.48828 0,0.83985 -1.93359,3.39844 -2.01172,2.67578 -3.73047,2.67578 -0.74219,0 -1.21094,-0.625 -0.33203,-0.44922 -0.33203,-1.09375 0,-1.09375 0.66406,-3.02734 0.66407,-1.9336 1.97266,-4.70703 3.35938,-7.05079 6.85547,-11.6211 2.79297,-3.67187 4.62891,-3.67187 0.58593,0 0.95703,0.44922 0.39062,0.44921 0.39062,1.03515 0,2.73438 -4.88281,9.10156 -2.1875,2.83204 -5.23438,5.66407 -0.80078,0.74218 -2.1875,1.99218 z m 1.38672,-3.10546 q 4.0625,-3.47657 7.26563,-8.78907 1.66015,-2.7539 1.66015,-3.65234 0,-0.42969 -0.37109,-0.42969 -1.07422,0 -3.90625,4.27735 -2.34375,3.51562 -4.64844,8.59375 z"
     style="font-style:normal;font-variant:normal;font-weight:normal;font-stretch:normal;font-family:'Freestyle Script';-inkscape-font-specification:'Freestyle Script';fill:#474747;fill-opacity:1"
     id="path1257" /><path
     d="m 563.20117,659.08984 q 1.60156,0 1.60156,1.95313 0,2.59765 -2.40234,6.58203 -2.61719,4.31641 -5.05859,4.31641 -1.13282,0 -1.66016,-1.05469 -0.27344,-0.52735 -0.27344,-1.26953 0,-2.5 1.71875,-5.42969 1.60157,-2.71484 3.76953,-4.21875 1.26954,-0.87891 2.30469,-0.87891 z m -2.03125,7.38282 q -0.48828,-0.39063 -0.48828,-0.60547 0,-0.15625 0.625,-0.85938 1.75781,-1.97265 1.75781,-3.18359 0,-0.15625 -0.0976,-0.3125 -0.15625,-0.29297 -0.48828,-0.29297 -0.625,0 -1.83594,1.21094 -1.5625,1.5625 -2.38281,3.22265 -0.95704,1.89453 -0.95704,3.14453 0,0.33204 0.17579,0.58594 0.2539,0.35156 0.64453,0.35156 0.9375,0 2.01172,-1.40625 0.46875,-0.58593 0.76171,-1.21093 0.29297,-0.625 0.27344,-0.64453 z"
     style="font-style:normal;font-variant:normal;font-weight:normal;font-stretch:normal;font-family:'Freestyle Script';-inkscape-font-specification:'Freestyle Script';fill:#474747;fill-opacity:1"
     id="path1259" /><path
     d="m 572.10742,659.10937 q -1.26953,1.97266 -2.34375,4.41407 -1.54297,3.47656 -1.54297,5.19531 0,0.48828 0.19532,0.74219 0.21484,0.2539 0.625,0.2539 0.97656,0 2.36328,-1.83593 0.8789,-1.13282 1.5625,-2.26563 0.37109,-0.64453 0.80078,-0.64453 0.2539,0 0.42969,0.17578 0.15625,0.17578 0.15625,0.35156 0,0.72266 -1.89454,3.22266 -2.26562,3.00781 -4.14062,3.00781 -0.99609,0 -1.66016,-0.91797 -0.41015,-0.58593 -0.41015,-1.66015 0,-2.36328 1.36718,-5.50782 0.33204,-0.78125 1.83594,-3.76953 -0.52734,0.13672 -0.80078,0.13672 -0.41016,0 -0.72266,-0.19531 -0.42968,-0.27344 -0.42968,-0.68359 0,-0.48829 0.5664,-0.78125 0.15625,-0.0781 1.44532,-0.25391 0.46875,-0.0781 1.36718,-0.37109 0.6836,-1.23047 2.22657,-3.33985 0.85937,-1.17187 1.1914,-1.52344 0.46875,-0.48828 0.82031,-0.48828 0.25391,0 0.50782,0.27344 0.23437,0.25391 0.23437,0.50781 0,0.50782 -1.09375,2.01172 -0.72265,0.97656 -1.07422,1.58203 2.16797,-0.58593 3.10547,-0.58593 1.07422,0 1.07422,0.89843 0,0.44922 -0.37109,0.66407 -0.19532,0.11718 -1.01563,0.19531 -0.33203,-0.0195 -2.94922,0.74219 -0.72265,0.21484 -1.42578,0.44921 z"
     style="font-style:normal;font-variant:normal;font-weight:normal;font-stretch:normal;font-family:'Freestyle Script';-inkscape-font-specification:'Freestyle Script';fill:#474747;fill-opacity:1"
     id="path1261" /></g></svg>