<?xml version="1.0" encoding="UTF-8" standalone="no"?>
<!-- Generator: Adobe Illustrator 19.0.0, SVG Export Plug-In . SVG Version: 6.00 Build 0)  -->

<svg
   xmlns:dc="http://purl.org/dc/elements/1.1/"
   xmlns:cc="http://creativecommons.org/ns#"
   xmlns:rdf="http://www.w3.org/1999/02/22-rdf-syntax-ns#"
   xmlns:svg="http://www.w3.org/2000/svg"
   xmlns="http://www.w3.org/2000/svg"
   xmlns:xlink="http://www.w3.org/1999/xlink"
   xmlns:sodipodi="http://sodipodi.sourceforge.net/DTD/sodipodi-0.dtd"
   xmlns:inkscape="http://www.inkscape.org/namespaces/inkscape"
   version="1.1"
   id="Calque_1"
   x="0px"
   y="0px"
   viewBox="0 0 800 600"
   style="enable-background:new 0 0 800 600;"
   xml:space="preserve"
   sodipodi:docname="hashelot-platforms.svg"
   inkscape:version="0.92.4 (5da689c313, 2019-01-14)"><metadata
   id="metadata52"><rdf:RDF><cc:Work
       rdf:about=""><dc:format>image/svg+xml</dc:format><dc:type
         rdf:resource="http://purl.org/dc/dcmitype/StillImage" /></cc:Work></rdf:RDF></metadata><defs
   id="defs50"><marker
     inkscape:isstock="true"
     inkscape:stockid="DistanceStart"
     orient="auto"
     refY="0.0"
     refX="0.0"
     id="marker3782"
     style="overflow:visible"><g
       style="stroke:#253fa8;stroke-opacity:1;fill:#6f9aea;fill-opacity:1"
       id="g3780"><path
         id="path3774"
         d="M 0,0 L 2,0"
         style="fill:#6f9aea;stroke:#253fa8;stroke-width:1.15;stroke-linecap:square;stroke-opacity:1;fill-opacity:1" /><path
         id="path3776"
         d="M 0,0 L 13,4 L 9,0 13,-4 L 0,0 z "
         style="fill:#6f9aea;fill-rule:evenodd;stroke:#253fa8;stroke-opacity:1;fill-opacity:1" /><path
         id="path3778"
         d="M 0,-4 L 0,40"
         style="fill:#6f9aea;stroke:#253fa8;stroke-width:1;stroke-linecap:square;stroke-opacity:1;fill-opacity:1" /></g></marker><marker
     inkscape:isstock="true"
     inkscape:stockid="DistanceStart"
     orient="auto"
     refY="0.0"
     refX="0.0"
     id="marker3607"
     style="overflow:visible"><g
       style="stroke:#253fa8;stroke-opacity:1;fill:#6f9aea;fill-opacity:1"
       id="g3605"><path
         id="path3599"
         d="M 0,0 L 2,0"
         style="fill:#6f9aea;stroke:#253fa8;stroke-width:1.15;stroke-linecap:square;stroke-opacity:1;fill-opacity:1" /><path
         id="path3601"
         d="M 0,0 L 13,4 L 9,0 13,-4 L 0,0 z "
         style="fill:#6f9aea;fill-rule:evenodd;stroke:#253fa8;stroke-opacity:1;fill-opacity:1" /><path
         id="path3603"
         d="M 0,-4 L 0,40"
         style="fill:#6f9aea;stroke:#253fa8;stroke-width:1;stroke-linecap:square;stroke-opacity:1;fill-opacity:1" /></g></marker><marker
     inkscape:isstock="true"
     inkscape:stockid="DistanceStart"
     orient="auto"
     refY="0.0"
     refX="0.0"
     id="marker3447"
     style="overflow:visible"><g
       style="stroke:#253fa8;stroke-opacity:1;fill:#a19ce2;fill-opacity:1"
       id="g3445"><path
         id="path3439"
         d="M 0,0 L 2,0"
         style="fill:#a19ce2;stroke:#253fa8;stroke-width:1.15;stroke-linecap:square;stroke-opacity:1;fill-opacity:1" /><path
         id="path3441"
         d="M 0,0 L 13,4 L 9,0 13,-4 L 0,0 z "
         style="fill:#a19ce2;fill-rule:evenodd;stroke:#253fa8;stroke-opacity:1;fill-opacity:1" /><path
         id="path3443"
         d="M 0,-4 L 0,40"
         style="fill:#a19ce2;stroke:#253fa8;stroke-width:1;stroke-linecap:square;stroke-opacity:1;fill-opacity:1" /></g></marker><marker
     inkscape:isstock="true"
     inkscape:stockid="DistanceStart"
     orient="auto"
     refY="0.0"
     refX="0.0"
     id="marker3302"
     style="overflow:visible"><g
       style="stroke:#253fa8;stroke-opacity:1;fill:#53d4dc;fill-opacity:1"
       id="g3300"><path
         id="path3294"
         d="M 0,0 L 2,0"
         style="fill:#53d4dc;stroke:#253fa8;stroke-width:1.15;stroke-linecap:square;stroke-opacity:1;fill-opacity:1" /><path
         id="path3296"
         d="M 0,0 L 13,4 L 9,0 13,-4 L 0,0 z "
         style="fill:#53d4dc;fill-rule:evenodd;stroke:#253fa8;stroke-opacity:1;fill-opacity:1" /><path
         id="path3298"
         d="M 0,-4 L 0,40"
         style="fill:#53d4dc;stroke:#253fa8;stroke-width:1;stroke-linecap:square;stroke-opacity:1;fill-opacity:1" /></g></marker><marker
     inkscape:isstock="true"
     inkscape:stockid="DistanceStart"
     orient="auto"
     refY="0.0"
     refX="0.0"
     id="marker3277"
     style="overflow:visible"><g
       style="stroke:#253fa8;stroke-opacity:1;fill:#a19ce2;fill-opacity:1"
       id="g3275"><path
         id="path3269"
         d="M 0,0 L 2,0"
         style="fill:#a19ce2;stroke:#253fa8;stroke-width:1.15;stroke-linecap:square;stroke-opacity:1;fill-opacity:1" /><path
         id="path3271"
         d="M 0,0 L 13,4 L 9,0 13,-4 L 0,0 z "
         style="fill:#a19ce2;fill-rule:evenodd;stroke:#253fa8;stroke-opacity:1;fill-opacity:1" /><path
         id="path3273"
         d="M 0,-4 L 0,40"
         style="fill:#a19ce2;stroke:#253fa8;stroke-width:1;stroke-linecap:square;stroke-opacity:1;fill-opacity:1" /></g></marker><marker
     inkscape:isstock="true"
     inkscape:stockid="DistanceStart"
     orient="auto"
     refY="0.0"
     refX="0.0"
     id="marker3002"
     style="overflow:visible"><g
       style="stroke:#253fa8;stroke-opacity:1;fill:#6f9aea;fill-opacity:1"
       id="g3000"><path
         id="path2994"
         d="M 0,0 L 2,0"
         style="fill:#6f9aea;stroke:#253fa8;stroke-width:1.15;stroke-linecap:square;stroke-opacity:1;fill-opacity:1" /><path
         id="path2996"
         d="M 0,0 L 13,4 L 9,0 13,-4 L 0,0 z "
         style="fill:#6f9aea;fill-rule:evenodd;stroke:#253fa8;stroke-opacity:1;fill-opacity:1" /><path
         id="path2998"
         d="M 0,-4 L 0,40"
         style="fill:#6f9aea;stroke:#253fa8;stroke-width:1;stroke-linecap:square;stroke-opacity:1;fill-opacity:1" /></g></marker><marker
     inkscape:isstock="true"
     inkscape:stockid="DistanceStart"
     orient="auto"
     refY="0.0"
     refX="0.0"
     id="marker2902"
     style="overflow:visible"><g
       style="stroke:#253fa8;stroke-opacity:1;fill:#6f9aea;fill-opacity:1"
       id="g2900"><path
         id="path2894"
         d="M 0,0 L 2,0"
         style="fill:#6f9aea;stroke:#253fa8;stroke-width:1.15;stroke-linecap:square;stroke-opacity:1;fill-opacity:1" /><path
         id="path2896"
         d="M 0,0 L 13,4 L 9,0 13,-4 L 0,0 z "
         style="fill:#6f9aea;fill-rule:evenodd;stroke:#253fa8;stroke-opacity:1;fill-opacity:1" /><path
         id="path2898"
         d="M 0,-4 L 0,40"
         style="fill:#6f9aea;stroke:#253fa8;stroke-width:1;stroke-linecap:square;stroke-opacity:1;fill-opacity:1" /></g></marker><marker
     inkscape:isstock="true"
     inkscape:stockid="DistanceStart"
     orient="auto"
     refY="0.0"
     refX="0.0"
     id="marker2817"
     style="overflow:visible"><g
       style="stroke:#253fa8;stroke-opacity:1;fill:#a19ce2;fill-opacity:1"
       id="g2815"><path
         id="path2809"
         d="M 0,0 L 2,0"
         style="fill:#a19ce2;stroke:#253fa8;stroke-width:1.15;stroke-linecap:square;stroke-opacity:1;fill-opacity:1" /><path
         id="path2811"
         d="M 0,0 L 13,4 L 9,0 13,-4 L 0,0 z "
         style="fill:#a19ce2;fill-rule:evenodd;stroke:#253fa8;stroke-opacity:1;fill-opacity:1" /><path
         id="path2813"
         d="M 0,-4 L 0,40"
         style="fill:#a19ce2;stroke:#253fa8;stroke-width:1;stroke-linecap:square;stroke-opacity:1;fill-opacity:1" /></g></marker><marker
     inkscape:isstock="true"
     inkscape:stockid="DistanceStart"
     orient="auto"
     refY="0.0"
     refX="0.0"
     id="marker2747"
     style="overflow:visible"><g
       style="stroke:#253fa8;stroke-opacity:1;fill:#53d4dc;fill-opacity:1"
       id="g2745"><path
         id="path2739"
         d="M 0,0 L 2,0"
         style="fill:#53d4dc;stroke:#253fa8;stroke-width:1.15;stroke-linecap:square;stroke-opacity:1;fill-opacity:1" /><path
         id="path2741"
         d="M 0,0 L 13,4 L 9,0 13,-4 L 0,0 z "
         style="fill:#53d4dc;fill-rule:evenodd;stroke:#253fa8;stroke-opacity:1;fill-opacity:1" /><path
         id="path2743"
         d="M 0,-4 L 0,40"
         style="fill:#53d4dc;stroke:#253fa8;stroke-width:1;stroke-linecap:square;stroke-opacity:1;fill-opacity:1" /></g></marker><marker
     inkscape:isstock="true"
     inkscape:stockid="DistanceStart"
     orient="auto"
     refY="0.0"
     refX="0.0"
     id="marker2692"
     style="overflow:visible"><g
       style="stroke:#253fa8;stroke-opacity:1;fill:#a19ce2;fill-opacity:1"
       id="g2690"><path
         id="path2684"
         d="M 0,0 L 2,0"
         style="fill:#a19ce2;stroke:#253fa8;stroke-width:1.15;stroke-linecap:square;stroke-opacity:1;fill-opacity:1" /><path
         id="path2686"
         d="M 0,0 L 13,4 L 9,0 13,-4 L 0,0 z "
         style="fill:#a19ce2;fill-rule:evenodd;stroke:#253fa8;stroke-opacity:1;fill-opacity:1" /><path
         id="path2688"
         d="M 0,-4 L 0,40"
         style="fill:#a19ce2;stroke:#253fa8;stroke-width:1;stroke-linecap:square;stroke-opacity:1;fill-opacity:1" /></g></marker><clipPath
     id="SVGID_10_"><use
       height="100%"
       width="100%"
       y="0"
       x="0"
       style="overflow:visible"
       xlink:href="#SVGID_9_"
       overflow="visible"
       id="use49" /></clipPath><clipPath
     id="SVGID_8_"><use
       height="100%"
       width="100%"
       y="0"
       x="0"
       style="overflow:visible"
       xlink:href="#SVGID_7_"
       overflow="visible"
       id="use39" /></clipPath><clipPath
     id="SVGID_6_"><use
       height="100%"
       width="100%"
       y="0"
       x="0"
       style="overflow:visible"
       xlink:href="#SVGID_5_"
       overflow="visible"
       id="use29" /></clipPath><clipPath
     id="SVGID_4_"><use
       height="100%"
       width="100%"
       y="0"
       x="0"
       style="overflow:visible"
       xlink:href="#SVGID_3_"
       overflow="visible"
       id="use19" /></clipPath><clipPath
     id="SVGID_2_"><use
       height="100%"
       width="100%"
       y="0"
       x="0"
       style="overflow:visible"
       xlink:href="#SVGID_1_"
       overflow="visible"
       id="use9" /></clipPath><path
     inkscape:connector-curvature="0"
     id="SVGID_1_"
     d="m 720.6,306.4 h 508.7 v 266 H 720.6 Z" /><path
     inkscape:connector-curvature="0"
     id="SVGID_3_"
     d="M 720.6,0 H 975 V 572.4 H 720.6 Z" /><path
     inkscape:connector-curvature="0"
     id="SVGID_5_"
     d="m 975,0 h 254.4 V 572.4 H 975 Z" /><path
     inkscape:connector-curvature="0"
     id="SVGID_7_"
     d="M 720.6,470.3 H 975 V 828.7 H 720.6 Z" /><path
     inkscape:connector-curvature="0"
     id="SVGID_9_"
     d="m 975,470.3 h 254.5 V 828.7 H 975 Z" /><pattern
     patternUnits="userSpaceOnUse"
     width="49.32933"
     height="47.69154"
     patternTransform="translate(-208.64294,173.80412)"
     id="pattern4137"><ellipse
       ry="21.84577"
       rx="22.664665"
       cy="23.84577"
       cx="24.664665"
       id="path2364"
       style="opacity:0.71499999;fill:none;fill-opacity:1;fill-rule:nonzero;stroke:#ffe813;stroke-width:4;stroke-linecap:round;stroke-linejoin:bevel;stroke-miterlimit:10;stroke-dasharray:none;stroke-opacity:1;paint-order:fill markers stroke" /></pattern><pattern
     patternUnits="userSpaceOnUse"
     width="49.32933"
     height="47.69154"
     patternTransform="translate(-208.64294,173.80412)"
     id="pattern4137-3"><ellipse
       ry="21.84577"
       rx="22.664665"
       cy="23.84577"
       cx="24.664665"
       id="path2364-0"
       style="opacity:0.71499999;fill:none;fill-opacity:1;fill-rule:nonzero;stroke:#ffe813;stroke-width:4;stroke-linecap:round;stroke-linejoin:bevel;stroke-miterlimit:10;stroke-dasharray:none;stroke-opacity:1;paint-order:fill markers stroke" /></pattern><pattern
     patternUnits="userSpaceOnUse"
     width="49.32933"
     height="47.69154"
     patternTransform="translate(-208.64294,173.80412)"
     id="pattern4137-6"><ellipse
       ry="21.84577"
       rx="22.664665"
       cy="23.84577"
       cx="24.664665"
       id="path2364-3"
       style="opacity:0.71499999;fill:none;fill-opacity:1;fill-rule:nonzero;stroke:#ffe813;stroke-width:4;stroke-linecap:round;stroke-linejoin:bevel;stroke-miterlimit:10;stroke-dasharray:none;stroke-opacity:1;paint-order:fill markers stroke" /></pattern></defs><sodipodi:namedview
   pagecolor="#ffffff"
   bordercolor="#666666"
   borderopacity="1"
   objecttolerance="10"
   gridtolerance="10"
   guidetolerance="10"
   inkscape:pageopacity="0"
   inkscape:pageshadow="2"
   inkscape:window-width="1825"
   inkscape:window-height="1046"
   id="namedview48"
   showgrid="false"
   inkscape:zoom="0.75398202"
   inkscape:cx="475.62693"
   inkscape:cy="522.31417"
   inkscape:window-x="84"
   inkscape:window-y="-11"
   inkscape:window-maximized="1"
   inkscape:current-layer="Calque_1" />
<style
   type="text/css"
   id="style2">
	.st0{fill:none;stroke:#5D5C74;stroke-width:4;stroke-miterlimit:10;}
	.st1{fill:#4FC1EA;stroke:#5D5C74;stroke-width:3;stroke-miterlimit:10;}
	.st2{fill:#5C5C74;}
	.st3{fill:#344258;stroke:#5D5C74;stroke-width:4;stroke-miterlimit:10;}
	.st4{fill:#FBD7CE;}
	.st5{fill:#E4E6E9;}
	.st6{fill:#CDCFD2;}
	.st7{fill:#5D5C74;}
	.st8{fill:#FFFFFF;}
	.st9{fill:#DFE1E2;}
	.st10{fill:#EDEEEF;}
	.st11{fill:none;stroke:#5D5C74;stroke-width:3;stroke-miterlimit:10;}
	.st12{fill:none;stroke:#F39200;stroke-width:3;stroke-miterlimit:10;}
	.st13{fill:none;stroke:#4FC1EB;stroke-width:3;stroke-miterlimit:10;}
</style>

<g
   id="g2192"
   transform="translate(-39.982568,86.794647)"><path
     id="path2"
     d="m 482.49098,439.58302 a 20.604482,20.604482 0 0 0 -16.91014,8.47412 30.468734,30.468734 0 0 0 -6.79834,19.70946 18.28124,18.28124 0 0 0 4.26562,12.66356 14.187004,14.187004 0 0 0 11.31152,4.79882 20.52831,20.52831 0 0 0 16.24364,-7.99804 31.630354,31.630354 0 0 0 7.33154,-20.60448 20.090322,20.090322 0 0 0 -3.59912,-12.37792 c -2.53272,-3.06592 -6.53174,-4.66552 -11.84472,-4.66552 z m 0.2666,33.8203 a 11.540033,11.540033 0 0 1 -8.13134,3.4658 6.3603482,6.3603482 0 0 1 -5.33204,-2.3994 10.111811,10.111811 0 0 1 -1.90428,-6.646 23.632312,23.632312 0 0 1 4.13232,-14.24412 12.282708,12.282708 0 0 1 10.53074,-5.7129 q 7.16016,0 7.1792,8.7788 a 24.108386,24.108386 0 0 1 -6.4746,16.75782 z m 257.76548,-12.77784 a 4.0561502,4.0561502 0 0 0 -5.06542,2.26612 c -3.71338,9.33104 -8.2456,13.97752 -13.84424,13.97752 -2.93262,0 -4.39892,-2.5327 -4.39892,-7.31248 a 103.70795,103.70795 0 0 1 2.36132,-16.11036 l 1.19972,-5.59862 h 11.42576 a 3.9990214,3.9990214 0 0 0 3.97998,-3.33252 4.1132792,4.1132792 0 0 0 -3.97998,-4.93212 h -9.52146 l 1.90428,-9.31202 a 4.3037086,4.3037086 0 0 0 -4.13232,-5.19872 4.151365,4.151365 0 0 0 -4.13232,3.33252 l -2.45654,11.04492 h -26.66014 a 20.623524,20.623524 0 0 0 -16.94824,8.60742 30.468734,30.468734 0 0 0 -6.79834,19.70946 24.755846,24.755846 0 0 0 0.66652,5.71288 9.5214794,9.5214794 0 0 1 -6.93164,3.33252 4.151365,4.151365 0 0 1 -3.58008,-1.4663 8.4169878,8.4169878 0 0 1 -1.0664,-4.7798 75.314902,75.314902 0 0 1 1.90428,-14.26316 l 6.9126,-32.2207 a 4.2313202,4.2313202 0 1 0 -8.2456,-1.90428 l -3.99902,19.67136 a 17.862295,17.862295 0 0 0 -9.33104,-2.5327 22.032704,22.032704 0 0 0 -17.31006,7.99804 30.468734,30.468734 0 0 0 -6.9126,20.24266 22.737292,22.737292 0 0 0 0.93312,6.9126 9.273921,9.273921 0 0 1 -5.86524,2.2661 4.627439,4.627439 0 0 1 -3.8086,-1.4663 7.369625,7.369625 0 0 1 -1.1997,-4.77978 50.806614,50.806614 0 0 1 1.333,-9.52148 4.3798806,4.3798806 0 0 0 -3.80858,-5.19872 4.2275368,4.2275368 0 0 0 -4.64648,3.1992 36.181622,36.181622 0 0 1 -5.86522,12.66358 11.425775,11.425775 0 0 1 -8.79786,5.17968 5.3320284,5.3320284 0 0 1 -4.51318,-2.66602 13.19677,13.19677 0 0 1 -1.75194,-7.04588 22.127918,22.127918 0 0 1 4.11328,-13.97754 12.987298,12.987298 0 0 1 10.93064,-5.59864 16.624503,16.624503 0 0 1 6.39844,1.33302 3.8085918,3.8085918 0 0 0 3.80858,-0.2666 4.1132792,4.1132792 0 0 0 -0.5332,-7.33154 17.767081,17.767081 0 0 0 -3.31346,-1.0664 25.460436,25.460436 0 0 0 -6.26514,-0.93312 22.166004,22.166004 0 0 0 -17.13866,7.99804 25.765124,25.765124 0 0 0 -5.46532,9.84522 v 0 c -4.13234,13.1206 -9.44532,19.51904 -15.84376,19.51904 a 5.503415,5.503415 0 0 1 -4.79882,-2.13282 8.2075152,8.2075152 0 0 1 -1.4663,-5.17968 6.512692,6.512692 0 0 1 0.1334,-1.73292 22.508778,22.508778 0 0 0 9.73094,-7.33154 17.976553,17.976553 0 0 0 3.8086,-10.9116 c 0,-6.66504 -3.58008,-9.99756 -10.91162,-9.99756 a 19.042959,19.042959 0 0 0 -13.57762,5.59862 l 4.53222,-20.94724 a 4.2084938,4.2084938 0 0 0 -4.13232,-5.06544 4.151365,4.151365 0 0 0 -4.13232,3.33252 l -12.37792,57.79538 a 4.189451,4.189451 0 0 0 4.11328,5.06544 v 0 a 4.151365,4.151365 0 0 0 3.96092,-3.44678 l 3.8086,-17.70996 a 35.895978,35.895978 0 0 1 2.66602,-6.79834 20.547352,20.547352 0 0 1 5.59862,-6.37938 12.511224,12.511224 0 0 1 8.3789,-3.06592 2.818358,2.818358 0 0 1 3.19922,3.19922 9.5214794,9.5214794 0 0 1 -3.99902,7.0459 16.891104,16.891104 0 0 1 -8.6455,4.13232 c -0.2666,2.5327 -0.3999,4.39892 -0.3999,5.46532 a 20.947254,20.947254 0 0 0 3.71338,12.87304 12.454095,12.454095 0 0 0 10.66404,4.66552 18.566885,18.566885 0 0 0 14.51074,-7.19824 l 1.59962,-1.90428 a 15.06298,15.06298 0 0 0 2.5327,4.26562 13.044427,13.044427 0 0 0 10.64502,4.79882 c 5.71288,0 10.53076,-2.66602 14.52978,-8.26464 1.71386,5.59862 5.71288,8.26464 12.37792,8.26464 a 16.243644,16.243644 0 0 0 10.22606,-3.78954 13.330071,13.330071 0 0 0 9.52148,3.59912 c 5.71288,0 10.51172,-2.66602 14.51074,-8.26466 1.7329,5.59864 5.71288,8.26466 12.37792,8.26466 a 16.60546,16.60546 0 0 0 11.42578,-4.39894 14.244133,14.244133 0 0 0 10.7783,4.39894 20.490224,20.490224 0 0 0 16.24366,-7.99806 31.630354,31.630354 0 0 0 7.33154,-20.50926 23.17528,23.17528 0 0 0 -1.59962,-8.9121 h 11.06396 l -1.0664,4.79882 a 102.10835,102.10835 0 0 0 -2.66602,16.91016 c 0,10.3784 4.26562,15.71044 12.64452,15.71044 9.52148,0 16.64356,-6.39844 21.70898,-19.04296 a 3.8085918,3.8085918 0 0 0 -2.3042,-5.19874 z m -94.41498,-5.06542 c -1.46632,7.33154 -3.8086,12.66356 -6.53174,16.12938 -2.72314,3.46582 -5.8462,5.17968 -9.0454,5.17968 a 5.3701144,5.3701144 0 0 1 -4.53224,-2.666 13.19677,13.19677 0 0 1 -1.7329,-6.9126 22.032704,22.032704 0 0 1 4.13232,-13.97754 12.339837,12.339837 0 0 1 18.64306,-2.3994 z m 46.35056,9.99756 a 38.48582,38.48582 0 0 1 -4.79884,7.71238 11.425775,11.425775 0 0 1 -8.13134,3.59912 6.3222624,6.3222624 0 0 1 -5.31298,-2.3994 10.111811,10.111811 0 0 1 -1.9043,-6.646 23.74657,23.74657 0 0 1 4.11328,-14.24412 12.454095,12.454095 0 0 1 10.53076,-5.7129 q 7.19824,0 7.19824,8.7788 a 27.174302,27.174302 0 0 1 -1.79004,8.91212 z M 518.57738,418.94044 a 4.151365,4.151365 0 0 0 -4.13232,3.33252 l -12.37792,57.79538 a 4.189451,4.189451 0 0 0 4.11328,5.06544 4.151365,4.151365 0 0 0 4.13232,-3.33252 l 12.39696,-57.79538 a 4.2656228,4.2656228 0 0 0 -4.13232,-5.06544 z m -88.5688,-12.77782 a 30.468734,30.468734 0 0 0 -30.35448,30.35448 31.192366,31.192366 0 0 0 1.59962,9.86426 4.3417946,4.3417946 0 0 0 5.33202,2.666 4.3227516,4.3227516 0 0 0 2.58984,-5.33202 19.880849,19.880849 0 0 1 -1.18066,-7.73144 21.899402,21.899402 0 1 1 23.21336,22.50878 c 0,0 -4.24656,0.2666 -6.37938,0.5332 a 21.918446,21.918446 0 0 0 -2.32324,0.45702 0.28564438,0.28564438 0 0 1 -0.3999,-0.3999 l 0.6665,-3.59912 3.99902,-18.10984 a 4.156974,4.156974 0 0 0 -8.13134,-1.73292 c 0,0 -9.52148,44.21776 -9.52148,44.61766 a 4.0371072,4.0371072 0 0 0 3.18018,4.93212 4.0561502,4.0561502 0 0 0 4.93212,-3.19922 c 0.1332,-0.5332 1.333,-6.39842 1.333,-6.39842 a 10.778315,10.778315 0 0 1 8.93116,-8.49316 c 0.91406,-0.1332 4.77978,-0.39992 4.77978,-0.39992 a 30.335434,30.335434 0 0 0 -2.26612,-60.53756 z"
     style="fill:#1e1e1e;stroke-width:1.90429592"
     inkscape:connector-curvature="0" /><path
     id="path4"
     d="m 749.359,476.06932 a 5.08447,5.08447 0 0 0 -5.99854,3.99902 5.0273412,5.0273412 0 0 0 3.99902,5.99854 4.9511692,4.9511692 0 0 0 5.9795,-3.99902 5.2558566,5.2558566 0 0 0 -3.97998,-5.99854 z"
     style="fill:#737373;fill-opacity:1;stroke-width:1.90429592"
     inkscape:connector-curvature="0" /></g><g
   id="g2158"
   transform="translate(-127.80659,24.068538)"><g
     id="g2162"
     transform="translate(-40.919235,-29.33832)"><path
       inkscape:connector-curvature="0"
       style="fill:#acacac;fill-opacity:1;stroke-width:6.30000019"
       d="m 498.72673,289.77709 v 100.8 l 65.52,23.94 v -102.06 l 71.19,-26.46 -64.89,-22.68 z"
       id="path10" /><path
       inkscape:connector-curvature="0"
       style="fill:#585858;fill-opacity:1;stroke-width:6.30000019"
       d="m 569.28673,316.23709 v 54.18 l 66.15,23.94 v -102.69 z"
       id="path12" /></g></g><g
   id="g1561"
   transform="matrix(2.8,0,0,2.8,-169.21334,-543.38939)"
   style="fill:#7a7a7a;fill-opacity:1;stroke:none;stroke-opacity:1"><circle
     style="fill:#7a7a7a;fill-opacity:1;stroke:none;stroke-width:4;stroke-miterlimit:10;stroke-opacity:1"
     id="circle4"
     r="4.8000002"
     cy="375.84213"
     cx="94.830086"
     class="st0" /><path
     style="fill:#7a7a7a;fill-opacity:1;stroke:none;stroke-width:4;stroke-miterlimit:10;stroke-opacity:1"
     id="path6"
     d="m 152.03009,352.04213 c -2.6,0 -4.8,2.1 -4.8,4.8 0,3.8 -0.6,4.8 -4.8,4.8 h -0.4 c -2.4,0.2 -4.3,2.2 -4.3,4.7 v 0.1 c 0,3.7 -0.7,4.6 -4.8,4.6 -0.2,0 -0.4,0 -0.5,0.1 -2.4,0.3 -4.3,2.3 -4.3,4.7 0,2.6 2.1,4.8 4.8,4.8 2.5,0 4.6,-2 4.7,-4.4 v -0.4 c 0,-3.4 1.1,-4.7 4.7,-4.8 h 0.1 c 2.5,0 4.6,-2 4.7,-4.5 v -0.3 c 0,-3.5 1.1,-4.8 4.8,-4.8 2.6,0 4.8,-2.1 4.8,-4.8 0,-2.5 -2.1,-4.6 -4.7,-4.6 z m -28.2,9.6 h -0.4 c -4.2,0 -4.8,-1 -4.8,-4.8 0,-2.6 -2.1,-4.8 -4.8,-4.8 -2.6,0 -4.8,2.1 -4.8,4.8 0,3.8 -0.6,4.7 -4.8,4.7 h -0.4 c -2.4,0.2 -4.300001,2.2 -4.300001,4.7 0,2.6 2.100001,4.8 4.800001,4.8 2.5,0 4.6,-2 4.7,-4.4 v -0.3 c 0,-3.5 1.1,-4.8 4.8,-4.8 3.7,0 4.8,1.3 4.8,4.7 0,2.6 2.1,4.8 4.8,4.8 2.7,0 4.8,-2.1 4.8,-4.8 -0.1,-2.4 -2,-4.4 -4.4,-4.6 z"
     class="st0"
     inkscape:connector-curvature="0" /></g><g
   id="g2188"
   transform="translate(-164.67746,-31.974695)"><path
     id="path2-3"
     d="m 631.5445,70.882218 c -41.06895,0 -74.37384,33.304312 -74.37384,74.374412 0,8.20857 1.33062,16.10452 3.78732,23.49205 h 22.24393 v -62.57727 l 48.34375,48.34375 48.34259,-48.34375 v 62.57669 h 22.24394 c 2.45844,-7.38753 3.78906,-15.28348 3.78906,-23.49204 -6e-4,-41.07127 -33.30606,-74.373842 -74.37675,-74.373842"
     style="fill:#a0a0a0;fill-opacity:1;stroke-width:0.58105469"
     inkscape:connector-curvature="0" /><path
     id="path4-5"
     d="m 620.42834,165.63015 -21.09809,-21.09867 v 39.37517 h -31.33861 c 13.0563,21.41942 36.63608,35.72324 63.5517,35.72324 26.91561,0 50.49772,-14.30382 63.55227,-35.72324 H 663.75759 V 144.5309 l -21.0981,21.09809 -11.11557,11.115 -11.11442,-11.11441 h -10e-4 z"
     style="fill:#4c4c4c;stroke-width:0.58105469"
     inkscape:connector-curvature="0" /></g><g
   id="g5328"
   transform="translate(-48.367437,-6.020903)"><path
     id="path2-4"
     d="m 758.56078,462.47267 -78.83929,-45.14359 -79.59822,45.33055 z"
     style="fill:#5f5f5f;fill-opacity:1;stroke-width:0.07921875"
     inkscape:connector-curvature="0" /><path
     id="path4-6"
     d="m 679.74684,326.4826 -0.0254,90.84648 78.83929,45.14359 z"
     style="fill:#5f5f5f;fill-opacity:1;stroke-width:0.07921875"
     inkscape:connector-curvature="0" /><path
     id="path6-5"
     d="m 600.12327,462.65963 79.59822,-45.33055 0.0254,-90.84648 z"
     style="fill:#817f7e;fill-opacity:1;stroke-width:0.07921875"
     inkscape:connector-curvature="0" /><path
     id="path8"
     d="m 679.55988,381.5927 -32.54703,54.36388 h 65.23982 z"
     stroke-miterlimit="10"
     style="fill:#ffffff;fill-opacity:1;stroke:#808080;stroke-width:1.98046875;stroke-miterlimit:10;stroke-opacity:1"
     inkscape:connector-curvature="0" /></g><g
   id="g5346"><path
     sodipodi:nodetypes="cccc"
     inkscape:connector-curvature="0"
     id="rect866-4-1"
     d="m 147.23021,155.9274 c -0.0332,-0.20824 -103.840141,49.17375 -103.840141,49.17375 l 103.840141,57.20813 c 0,0 0.0332,-106.17363 0,-106.38188 z"
     style="display:inline;fill:#6f9aea;fill-opacity:1;fill-rule:evenodd;stroke:#253fa8;stroke-width:3;stroke-linecap:square;stroke-linejoin:bevel;stroke-miterlimit:10;stroke-dasharray:none;stroke-dashoffset:0;stroke-opacity:1;paint-order:fill markers stroke" /><path
     sodipodi:nodetypes="cccc"
     inkscape:connector-curvature="0"
     id="rect866-4"
     d="m 147.25968,155.9274 c 0.0331,-0.20823 103.84014,49.17375 103.84014,49.17375 l -103.84014,57.20813 c 0,0 -0.0332,-106.17363 0,-106.38188 z"
     style="display:inline;fill:#a19ce2;fill-opacity:1;fill-rule:evenodd;stroke:#253fa8;stroke-width:3;stroke-linecap:square;stroke-linejoin:bevel;stroke-miterlimit:10;stroke-dasharray:none;stroke-dashoffset:0;stroke-opacity:1;paint-order:fill markers stroke" /><path
     sodipodi:nodetypes="cccc"
     inkscape:connector-curvature="0"
     id="rect866"
     d="M 147.25968,33.016443 C 147.29278,32.774988 251.0972,205.10397 251.0972,205.10397 L 147.25968,156.35396 c 0,0 -0.0332,-123.096088 0,-123.337517 z"
     style="display:inline;fill:#53d4dc;fill-opacity:1;fill-rule:evenodd;stroke:#253fa8;stroke-width:3;stroke-linecap:square;stroke-linejoin:bevel;stroke-miterlimit:10;stroke-dasharray:none;stroke-dashoffset:0;stroke-opacity:1;paint-order:fill markers stroke" /><path
     sodipodi:nodetypes="cccc"
     inkscape:connector-curvature="0"
     id="rect866-4-7"
     d="m 147.25968,360.5622 c 0.0331,0.16214 103.85366,-139.0413 103.85366,-139.0413 l -103.85366,56.27427 c 0,0 -0.0332,82.605 0,82.76703 z"
     style="display:inline;fill:#a19ce2;fill-opacity:1;fill-rule:evenodd;stroke:#253fa8;stroke-width:3;stroke-linecap:square;stroke-linejoin:bevel;stroke-miterlimit:10;stroke-dasharray:none;stroke-dashoffset:0;stroke-opacity:1;paint-order:fill markers stroke" /><path
     sodipodi:nodetypes="cccc"
     inkscape:connector-curvature="0"
     id="rect866-47"
     d="M 147.23021,33.016443 C 147.19706,32.774988 43.392679,205.10397 43.392679,205.10397 L 147.23021,156.35396 c 0,0 0.0332,-123.096088 0,-123.337517 z"
     style="display:inline;fill:#a19ce2;fill-opacity:1;fill-rule:evenodd;stroke:#253fa8;stroke-width:3;stroke-linecap:square;stroke-linejoin:bevel;stroke-miterlimit:10;stroke-dasharray:none;stroke-dashoffset:0;stroke-opacity:1;paint-order:fill markers stroke" /><path
     sodipodi:nodetypes="cccc"
     inkscape:connector-curvature="0"
     id="rect866-4-7-4"
     d="M 147.23021,360.5622 C 147.19706,360.72434 43.376539,221.5209 43.376539,221.5209 l 103.853671,56.27427 c 0,0 0.0332,82.605 0,82.76703 z"
     style="display:inline;fill:#6f9aea;fill-opacity:1;fill-rule:evenodd;stroke:#253fa8;stroke-width:3;stroke-linecap:square;stroke-linejoin:bevel;stroke-miterlimit:10;stroke-dasharray:none;stroke-dashoffset:0;stroke-opacity:1;paint-order:fill markers stroke" /></g><g
   id="g2362"
   transform="matrix(1.1592741,0,0,1.1592741,-49.919782,18.274664)"><path
     d="m 715.00954,161.26911 c -8.548,34.286 -43.274,55.152 -77.564,46.602 -34.276,-8.548 -55.142,-43.276 -46.59,-77.56 8.544,-34.289998 43.27,-55.157997 77.55,-46.609998 34.288,8.548 55.152,43.279998 46.604,77.567998 z"
     id="path2-0"
     inkscape:connector-curvature="0"
     style="fill:#888888;fill-opacity:1;stroke-width:2" /><path
     d="m 681.14954,136.66911 c 1.274,-8.516 -5.21,-13.094 -14.076,-16.148 l 2.876,-11.536 -7.022,-1.75 -2.8,11.232 c -1.846,-0.46 -3.742,-0.894 -5.626,-1.324 l 2.82,-11.306 -7.018,-1.75 -2.878,11.532 c -1.528,-0.348 -3.028,-0.692 -4.484,-1.054 l 0.008,-0.036 -9.684,-2.418 -1.868,7.5 c 0,0 5.21,1.194 5.1,1.268 2.844,0.71 3.358,2.592 3.272,4.084 l -3.276,13.142 c 0.196,0.05 0.45,0.122 0.73,0.234 -0.234,-0.058 -0.484,-0.122 -0.742,-0.184 l -4.592,18.41 c -0.348,0.864 -1.23,2.16 -3.218,1.668 0.07,0.102 -5.104,-1.274 -5.104,-1.274 l -3.486,8.038 9.138,2.278 c 1.7,0.426 3.366,0.872 5.006,1.292 l -2.906,11.668 7.014,1.75 2.878,-11.544 c 1.916,0.52 3.776,1 5.596,1.452 l -2.868,11.49 7.022,1.75 2.906,-11.646 c 11.974,2.266 20.978,1.352 24.768,-9.478 3.054,-8.72 -0.152,-13.75 -6.452,-17.03 4.588,-1.058 8.044,-4.076 8.966,-10.31 z m -16.044,22.498 c -2.17,8.72 -16.852,4.006 -21.612,2.824 l 3.856,-15.458 c 4.76,1.188 20.024,3.54 17.756,12.634 z m 2.172,-22.624 c -1.98,7.932 -14.2,3.902 -18.164,2.914 l 3.496,-14.02 c 3.964,0.988 16.73,2.832 14.668,11.106 z"
     id="path4-59"
     inkscape:connector-curvature="0"
     style="fill:#ffffff;stroke-width:2" /></g></svg>