<?xml version="1.0" encoding="UTF-8" standalone="no"?>
<!-- Generator: Adobe Illustrator 19.0.0, SVG Export Plug-In . SVG Version: 6.00 Build 0)  -->

<svg
   xmlns:dc="http://purl.org/dc/elements/1.1/"
   xmlns:cc="http://creativecommons.org/ns#"
   xmlns:rdf="http://www.w3.org/1999/02/22-rdf-syntax-ns#"
   xmlns:svg="http://www.w3.org/2000/svg"
   xmlns="http://www.w3.org/2000/svg"
   xmlns:sodipodi="http://sodipodi.sourceforge.net/DTD/sodipodi-0.dtd"
   xmlns:inkscape="http://www.inkscape.org/namespaces/inkscape"
   version="1.1"
   id="Calque_1"
   x="0px"
   y="0px"
   viewBox="0 0 200 200"
   style="enable-background:new 0 0 200 200;"
   xml:space="preserve"
   sodipodi:docname="advocacy.svg"
   inkscape:version="0.92.4 (5da689c313, 2019-01-14)"><metadata
   id="metadata20"><rdf:RDF><cc:Work
       rdf:about=""><dc:format>image/svg+xml</dc:format><dc:type
         rdf:resource="http://purl.org/dc/dcmitype/StillImage" /></cc:Work></rdf:RDF></metadata><defs
   id="defs18">
	
	
</defs><sodipodi:namedview
   pagecolor="#ffffff"
   bordercolor="#666666"
   borderopacity="1"
   objecttolerance="10"
   gridtolerance="10"
   guidetolerance="10"
   inkscape:pageopacity="0"
   inkscape:pageshadow="2"
   inkscape:window-width="1825"
   inkscape:window-height="1046"
   id="namedview16"
   showgrid="false"
   inkscape:zoom="0.60479101"
   inkscape:cx="-5.1736328"
   inkscape:cy="91.46658"
   inkscape:window-x="84"
   inkscape:window-y="-11"
   inkscape:window-maximized="1"
   inkscape:current-layer="Calque_1" />
<style
   type="text/css"
   id="style2">
	.st0{fill:#4FC1EA;}
	.st1{opacity:0.3;}
	.st2{fill:#585763;}
</style>

<g
   id="g1283"
   transform="rotate(-10,27.826405,140.62376)"><rect
     y="133.72127"
     x="47.059311"
     height="20.483864"
     width="37.998199"
     id="rect896"
     style="fill:#ffedda;fill-opacity:1;fill-rule:evenodd;stroke-width:0.79929668" /><path
     sodipodi:nodetypes="ssscczsssss"
     inkscape:connector-curvature="0"
     id="rect948-8-7-6"
     d="m 52.306641,152.96484 c -1.660283,0 -2.998047,1.33581 -2.998047,2.9961 v 1.96484 c 0,0.0281 0.0071,0.0541 0.0078,0.082 0.977436,-0.38192 2.070623,-0.58257 3.181641,-0.58398 1.899525,0.31118 4.451808,1.01532 6.2903,2.46464 1.838491,1.44931 12.738997,1.03341 12.738997,1.03341 1.660282,0 2.996094,-1.33582 2.996094,-2.9961 v -1.96484 c 0,-1.66029 -1.335812,-2.9961 -2.996094,-2.9961 z"
     style="fill:#ffedda;fill-opacity:1;fill-rule:evenodd;stroke-width:1.23106778" /><rect
     y="132.62135"
     x="20.668297"
     height="30.589077"
     width="33.069275"
     id="rect880"
     style="fill:#d5d5d5;fill-opacity:1;fill-rule:evenodd" /><rect
     y="132.62135"
     x="-40.509861"
     height="35.156876"
     width="90.113777"
     id="rect878"
     style="fill:#3966bb;fill-opacity:1;fill-rule:evenodd;stroke-width:1.2174114" /><ellipse
     ry="2.3501661"
     rx="2.502044"
     cy="159.02332"
     cx="37.502647"
     id="path882"
     style="opacity:1;fill:#d5d5d5;fill-opacity:1;fill-rule:nonzero;stroke:none;stroke-width:2.60113454;stroke-linecap:square;stroke-linejoin:bevel;stroke-miterlimit:4;stroke-dasharray:none;stroke-dashoffset:0;stroke-opacity:1;paint-order:fill markers stroke" /><rect
     ry="2.9969001"
     y="117.12013"
     x="70.685577"
     height="53.944256"
     width="21.908394"
     id="rect923"
     style="fill:#484848;fill-opacity:1;fill-rule:evenodd;stroke-width:1.05910015" /><rect
     ry="2.9969001"
     y="127.32681"
     x="81.986313"
     height="7.9572945"
     width="16.63798"
     id="rect948"
     style="fill:#ffedda;fill-opacity:1;fill-rule:evenodd" /><rect
     ry="2.9969001"
     y="135.2841"
     x="81.986313"
     height="7.9572945"
     width="16.63798"
     id="rect948-8"
     style="fill:#ffedda;fill-opacity:1;fill-rule:evenodd" /><rect
     ry="2.9969001"
     y="135.04988"
     x="85.818909"
     height="7.9572945"
     width="16.63798"
     id="rect948-8-7"
     style="fill:#ffedda;fill-opacity:1;fill-rule:evenodd" /><rect
     ry="2.9969001"
     y="142.94035"
     x="84.304146"
     height="7.9572945"
     width="14.080408"
     id="rect948-8-7-4"
     style="fill:#ffedda;fill-opacity:1;fill-rule:evenodd;stroke-width:0.91993541" /><rect
     ry="2.9969001"
     y="150.60536"
     x="83.619469"
     height="7.9572945"
     width="11.449763"
     id="rect948-8-7-4-0"
     style="fill:#ffedda;fill-opacity:1;fill-rule:evenodd;stroke-width:0.82956034" /><rect
     transform="rotate(-36.235274)"
     ry="2.9969029"
     y="141.09166"
     x="-36.451809"
     height="8.577343"
     width="23.561859"
     id="rect901"
     style="fill:#ffedda;fill-opacity:1;fill-rule:evenodd" /><path
     id="rect901-7"
     d="m 75.230469,124.4668 c -0.208309,0.14394 -0.447041,0.24804 -0.720703,0.24804 h -0.56836 c -0.258187,0 -0.484181,-0.0932 -0.685547,-0.22265 l -4.791015,3.86328 c -0.221705,0.17873 -0.463251,0.31097 -0.710938,0.42187 l 4.201172,5.73243 c 0.981401,1.33918 2.850273,1.62787 4.189453,0.64648 l 2.083985,-1.52734 c 1.339179,-0.9814 1.627886,-2.84831 0.646484,-4.1875 z"
     style="fill:#ffedda;fill-opacity:1;fill-rule:evenodd"
     inkscape:connector-curvature="0" /><rect
     ry="2.6524289"
     y="72.114914"
     x="53.322075"
     height="47.743767"
     width="21.908394"
     id="rect923-7"
     style="fill:#484848;fill-opacity:1;fill-rule:evenodd;stroke-width:0.99637485" /><ellipse
     ry="7.3073463"
     rx="6.576612"
     cy="95.986794"
     cx="162.83521"
     id="path1088"
     style="opacity:1;fill:#e15b1e;fill-opacity:1;fill-rule:evenodd;stroke:none;stroke-width:4.0999999;stroke-linecap:square;stroke-linejoin:bevel;stroke-miterlimit:4;stroke-dasharray:none;stroke-dashoffset:0;stroke-opacity:1;paint-order:fill markers stroke" /><path
     inkscape:connector-curvature="0"
     id="rect1063"
     d="m 158.99805,44.274882 c -12.60762,4.614434 -16.05513,10.454456 -25.31641,15.708985 -9.26128,5.254528 -38.435546,11.574218 -38.435546,11.574219 -1.407037,0.423696 -2.652344,1.182897 -2.652344,2.652343 v 11.242188 21.068363 11.24219 c 0,1.46945 1.245304,2.22864 2.652344,2.65234 0,0 29.174266,6.3197 38.435546,11.57422 9.26128,5.25453 12.70879,11.09455 25.31641,15.70898 1.08866,0 1.96679,-0.87618 1.96679,-1.96484 V 134.48973 57.483867 46.239726 c 0,-1.08866 -0.87813,-1.964844 -1.96679,-1.964844 z"
     style="fill:#a8a8a8;fill-opacity:1;fill-rule:evenodd" /><rect
     ry="2.9510291"
     y="66.069435"
     x="58.697964"
     height="59.834721"
     width="38.8564"
     id="rect1046"
     style="fill:#e15b1e;fill-opacity:1;fill-rule:evenodd;stroke-width:0.89715117" /><rect
     ry="2.4741681"
     y="42.528458"
     x="155.63847"
     height="106.91667"
     width="8.7576914"
     id="rect1086"
     style="fill:#484848;fill-opacity:1;fill-rule:evenodd;stroke-width:0.73928791" /><path
     id="rect923-7-1"
     d="m 55.974609,72.115234 c -1.469446,0 -2.652343,1.182898 -2.652343,2.652344 v 20.591797 h 5.375 V 72.115234 Z"
     style="opacity:1;fill:#303030;fill-opacity:0.39215686;fill-rule:evenodd;stroke-width:0.99637485"
     inkscape:connector-curvature="0" /><path
     id="path1088-3"
     d="m 164.39648,88.900391 v 6.458984 h 4.98633 a 6.576612,7.3073463 0 0 0 -4.98633,-6.458984 z"
     style="opacity:1;fill:#a94416;fill-opacity:0.39215686;fill-rule:evenodd;stroke:none;stroke-width:4.0999999;stroke-linecap:square;stroke-linejoin:bevel;stroke-miterlimit:4;stroke-dasharray:none;stroke-dashoffset:0;stroke-opacity:1;paint-order:fill markers stroke"
     inkscape:connector-curvature="0" /><path
     id="rect1063-2"
     d="M 155.63867,45.636719 C 145.6999,50.00658 142.0563,55.232884 133.68164,59.984375 125.55687,64.594088 103.1878,69.77005 97.554688,71.033203 V 95.359375 H 155.63867 Z"
     style="opacity:1;fill:#505050;fill-opacity:0.39215686;fill-rule:evenodd"
     inkscape:connector-curvature="0" /><path
     id="rect1046-5"
     d="m 61.648438,66.070312 c -1.634871,0 -2.951172,1.314349 -2.951172,2.949219 V 95.359375 H 97.554688 V 69.019531 c -10e-7,-1.63487 -1.316302,-2.949219 -2.951172,-2.949219 z"
     style="opacity:1;fill:#aa4517;fill-opacity:0.39215686;fill-rule:evenodd;stroke-width:0.89715117"
     inkscape:connector-curvature="0" /><path
     id="rect1086-4"
     d="m 158.11328,42.529297 c -1.37069,0 -2.47461,1.101967 -2.47461,2.472656 v 50.357422 h 8.75781 V 45.001953 c 0,-1.370689 -1.10392,-2.472656 -2.4746,-2.472656 z"
     style="opacity:1;fill:#303030;fill-opacity:0.39215686;fill-rule:evenodd;stroke-width:0.73928791"
     inkscape:connector-curvature="0" /></g></svg>