<?xml version="1.0" encoding="UTF-8" standalone="no"?>
<!-- Generator: Adobe Illustrator 19.0.0, SVG Export Plug-In . SVG Version: 6.00 Build 0)  -->

<svg
   xmlns:dc="http://purl.org/dc/elements/1.1/"
   xmlns:cc="http://creativecommons.org/ns#"
   xmlns:rdf="http://www.w3.org/1999/02/22-rdf-syntax-ns#"
   xmlns:svg="http://www.w3.org/2000/svg"
   xmlns="http://www.w3.org/2000/svg"
   xmlns:sodipodi="http://sodipodi.sourceforge.net/DTD/sodipodi-0.dtd"
   xmlns:inkscape="http://www.inkscape.org/namespaces/inkscape"
   version="1.1"
   id="Calque_1"
   x="0px"
   y="0px"
   viewBox="0 0 200 200"
   style="enable-background:new 0 0 200 200;"
   xml:space="preserve"
   sodipodi:docname="development.svg"
   inkscape:version="0.92.4 (5da689c313, 2019-01-14)"><metadata
   id="metadata20"><rdf:RDF><cc:Work
       rdf:about=""><dc:format>image/svg+xml</dc:format><dc:type
         rdf:resource="http://purl.org/dc/dcmitype/StillImage" /></cc:Work></rdf:RDF></metadata><defs
   id="defs18">
	
	
</defs><sodipodi:namedview
   pagecolor="#ffffff"
   bordercolor="#666666"
   borderopacity="1"
   objecttolerance="10"
   gridtolerance="10"
   guidetolerance="10"
   inkscape:pageopacity="0"
   inkscape:pageshadow="2"
   inkscape:window-width="1825"
   inkscape:window-height="1046"
   id="namedview16"
   showgrid="false"
   inkscape:zoom="1.4692906"
   inkscape:cx="-97.104018"
   inkscape:cy="-16.151486"
   inkscape:window-x="84"
   inkscape:window-y="-11"
   inkscape:window-maximized="1"
   inkscape:current-layer="Calque_1" />
<style
   type="text/css"
   id="style2">
	.st0{fill:#4FC1EA;}
	.st1{opacity:0.3;}
	.st2{fill:#585763;}
</style>

<path
   inkscape:connector-curvature="0"
   style="fill:#707070;fill-opacity:1;fill-rule:evenodd;stroke:#bdbdbd;stroke-width:4.0999999;stroke-miterlimit:4;stroke-dasharray:none;stroke-opacity:1"
   d="m 47.936156,47.915109 c -5.057651,0 -9.128906,4.071254 -9.128906,9.128906 v 66.589835 c 0,5.05766 4.071255,9.13086 9.128906,9.13086 h 8.871092 l 0.0039,0.008 h 28.626953 l 0.01367,-0.008 h 52.167978 c 5.05765,0 9.1289,-4.0732 9.1289,-9.13086 V 57.044015 c 0,-5.057652 -4.07125,-9.128906 -9.1289,-9.128906 z"
   id="rect832" /><path
   style="fill:#8ef288;fill-opacity:1;stroke-width:0.87619907"
   d="m 79.286201,79.92345 -8.424993,8.317307 -2.129244,2.102413 2.129244,2.102401 8.424993,8.318799 2.129244,-2.102409 -8.424992,-8.318791 8.424992,-8.317315 z m 26.983509,0 -2.12926,2.102406 8.425,8.317314 -8.425,8.318792 2.12926,2.102408 8.42499,-8.318798 2.12924,-2.102401 -2.12924,-2.102413 z m -8.848739,0.117627 -11.178535,19.118195 2.607269,1.485978 11.178535,-19.118194 z"
   id="XMLID_2171_-9-7-7"
   inkscape:connector-curvature="0" /><path
   style="fill:#363636;fill-opacity:0.39215687;fill-rule:evenodd;stroke:none;stroke-width:4.0999999;stroke-miterlimit:4;stroke-dasharray:none;stroke-opacity:1"
   d="M 46.884766 47.980469 C 42.326725 48.499347 38.806641 52.343492 38.806641 57.044922 L 38.806641 123.63477 C 38.806641 128.69243 42.877896 132.76563 47.935547 132.76562 L 56.806641 132.76562 L 56.810547 132.77344 L 85.4375 132.77344 L 85.451172 132.76562 L 126.83008 132.76562 L 46.884766 47.980469 z "
   id="rect832-6" /><path
   style="fill:#679f7d;fill-opacity:1;fill-rule:evenodd;stroke-width:0.66434425"
   d="m 130.73275,113.50705 1.32181,4.16031 a 19.924051,19.490919 72.373953 0 0 -3.0863,2.68971 l -3.94172,-2.04092 -5.20326,10.04931 4.15325,2.152 a 19.924051,19.490919 72.373953 0 0 -0.27428,3.85177 l -4.51397,1.43418 3.42665,10.78514 4.51582,-1.43477 a 19.924051,19.490919 72.373953 0 0 2.44459,2.99203 l -2.14886,4.15021 10.0493,5.20327 2.03075,-3.92209 a 19.924051,19.490919 72.373953 0 0 4.08767,0.41041 l 1.31767,4.14728 10.787,-3.42724 -1.3224,-4.16216 a 19.924051,19.490919 72.373953 0 0 3.08874,-2.68846 l 3.93927,2.03965 5.20513,-10.04989 -4.15512,-2.15141 a 19.924051,19.490919 72.373953 0 0 0.27615,-3.85236 l 4.51211,-1.43358 -3.42665,-10.78514 -4.51769,1.43535 a 19.924051,19.490919 72.373953 0 0 -2.44214,-2.99076 l 2.15014,-4.15266 -10.05116,-5.20269 -2.03203,3.92455 a 19.924051,19.490919 72.373953 0 0 -4.0858,-0.411 l -1.31767,-4.14728 z m 8.92161,9.38767 a 11.764954,11.509192 72.373953 0 1 14.52964,7.7268 11.764954,11.509192 72.373953 0 1 -7.40489,14.69787 11.764954,11.509192 72.373953 0 1 -14.53208,-7.72808 11.764954,11.509192 72.373953 0 1 7.40733,-14.69659 z"
   id="rect893-6-0-1-0"
   inkscape:connector-curvature="0" /><path
   style="fill:#2c2c2c;fill-opacity:1;fill-rule:evenodd;stroke-width:0.66434425"
   d="m 126.73275,109.50705 1.32181,4.16031 a 19.924051,19.490919 72.373953 0 0 -3.0863,2.68971 l -3.94172,-2.04092 -5.20326,10.04931 4.15325,2.152 a 19.924051,19.490919 72.373953 0 0 -0.27428,3.85177 l -4.51397,1.43418 3.42665,10.78514 4.51582,-1.43477 a 19.924051,19.490919 72.373953 0 0 2.44459,2.99203 l -2.14886,4.15021 10.0493,5.20327 2.03075,-3.92209 a 19.924051,19.490919 72.373953 0 0 4.08767,0.41041 l 1.31767,4.14728 10.787,-3.42724 -1.3224,-4.16216 a 19.924051,19.490919 72.373953 0 0 3.08874,-2.68846 l 3.93927,2.03965 5.20513,-10.04989 -4.15512,-2.15141 a 19.924051,19.490919 72.373953 0 0 0.27615,-3.85236 l 4.51211,-1.43358 -3.42665,-10.78514 -4.51769,1.43535 a 19.924051,19.490919 72.373953 0 0 -2.44214,-2.99076 l 2.15014,-4.15266 -10.05116,-5.20269 -2.03203,3.92455 a 19.924051,19.490919 72.373953 0 0 -4.0858,-0.411 l -1.31767,-4.14728 z m 8.92161,9.38767 a 11.764954,11.509192 72.373953 0 1 14.52964,7.7268 11.764954,11.509192 72.373953 0 1 -7.40489,14.69787 11.764954,11.509192 72.373953 0 1 -14.53208,-7.72808 11.764954,11.509192 72.373953 0 1 7.40733,-14.69659 z"
   id="rect893-6-0-1"
   inkscape:connector-curvature="0" /></svg>