<?xml version="1.0" encoding="UTF-8" standalone="no"?>
<!-- Generator: Adobe Illustrator 19.0.0, SVG Export Plug-In . SVG Version: 6.00 Build 0)  -->

<svg
   xmlns:dc="http://purl.org/dc/elements/1.1/"
   xmlns:cc="http://creativecommons.org/ns#"
   xmlns:rdf="http://www.w3.org/1999/02/22-rdf-syntax-ns#"
   xmlns:svg="http://www.w3.org/2000/svg"
   xmlns="http://www.w3.org/2000/svg"
   xmlns:sodipodi="http://sodipodi.sourceforge.net/DTD/sodipodi-0.dtd"
   xmlns:inkscape="http://www.inkscape.org/namespaces/inkscape"
   version="1.1"
   id="Calque_1"
   x="0px"
   y="0px"
   viewBox="0 0 200 200"
   style="enable-background:new 0 0 200 200;"
   xml:space="preserve"
   sodipodi:docname="research.svg"
   inkscape:version="0.92.4 (5da689c313, 2019-01-14)"><metadata
   id="metadata20"><rdf:RDF><cc:Work
       rdf:about=""><dc:format>image/svg+xml</dc:format><dc:type
         rdf:resource="http://purl.org/dc/dcmitype/StillImage" /></cc:Work></rdf:RDF></metadata><defs
   id="defs18">
	
	
</defs><sodipodi:namedview
   pagecolor="#ffffff"
   bordercolor="#666666"
   borderopacity="1"
   objecttolerance="10"
   gridtolerance="10"
   guidetolerance="10"
   inkscape:pageopacity="0"
   inkscape:pageshadow="2"
   inkscape:window-width="1825"
   inkscape:window-height="1046"
   id="namedview16"
   showgrid="false"
   inkscape:zoom="1.2620167"
   inkscape:cx="8.0772488"
   inkscape:cy="126.03061"
   inkscape:window-x="84"
   inkscape:window-y="-11"
   inkscape:window-maximized="1"
   inkscape:current-layer="Calque_1" />
<style
   type="text/css"
   id="style2">
	.st0{fill:#4FC1EA;}
	.st1{opacity:0.3;}
	.st2{fill:#585763;}
</style>

<g
   id="g1253"
   transform="translate(-6.3597024,5.2963698)"><g
     transform="translate(29.318153,-8.1219208)"
     id="g1047"><path
       inkscape:connector-curvature="0"
       style="fill:#fec800;fill-opacity:1;fill-rule:evenodd"
       d="m 138.42383,61.126953 a 3.7477524,2.0108132 0 0 0 -3.74219,1.935547 h -0.004 v 0.05469 a 3.7477524,2.0108132 0 0 0 -0.002,0.02148 3.7477524,2.0108132 0 0 0 0.002,0.03516 v 62.71875 h 7.51954 V 63.0625 h -0.0312 a 3.7477524,2.0108132 0 0 0 -3.74219,-1.935547 z"
       id="rect832" /><path
       inkscape:connector-curvature="0"
       style="fill:#bdbdbd;fill-opacity:1;fill-rule:evenodd;stroke-width:0.9900763"
       d="m 138.4375,123.83008 a 3.7477524,2.0108132 0 0 0 -3.74805,2.00976 3.7477524,2.0108132 0 0 0 0.004,0.0527 h -0.0156 l 0.0195,0.0684 a 3.7477524,2.0108132 0 0 0 0.10742,0.36328 l 3.66992,12.54883 3.60547,-12.57032 a 3.7477524,2.0108132 0 0 0 0.0918,-0.32226 l 0.0254,-0.0879 h -0.0176 a 3.7477524,2.0108132 0 0 0 0.006,-0.0527 3.7477524,2.0108132 0 0 0 -3.74805,-2.00976 z"
       id="rect834" /><path
       inkscape:connector-curvature="0"
       style="fill:#898989;fill-opacity:1;fill-rule:evenodd;stroke-width:0.9900763"
       d="m 138.41797,123.83008 v 14.84961 l 0.0566,0.19336 3.60547,-12.57032 a 3.7477524,2.0108132 0 0 0 0.0918,-0.32226 l 0.0254,-0.0879 h -0.0176 a 3.7477524,2.0108132 0 0 0 0.006,-0.0527 3.7477524,2.0108132 0 0 0 -3.74805,-2.00976 3.7477524,2.0108132 0 0 0 -0.0195,0 z"
       id="rect834-5" /><path
       inkscape:connector-curvature="0"
       style="fill:#333333;fill-opacity:1;fill-rule:evenodd;stroke-width:0.9900763"
       d="m 138.45121,133.20595 a 1.3423123,0.93040371 0 0 0 -1.34375,0.93164 1.3423123,0.93040371 0 0 0 0.008,0.0859 l 1.35938,4.64844 1.32812,-4.63282 h -0.0195 a 1.3423123,0.93040371 0 0 0 0.01,-0.10156 1.3423123,0.93040371 0 0 0 -1.3418,-0.93164 z"
       id="rect834-4" /><path
       inkscape:connector-curvature="0"
       style="fill:#784200;fill-opacity:0.39215686;fill-rule:evenodd"
       d="m 138.41797,61.126953 v 62.703127 a 3.7477524,2.0108132 0 0 1 0.0195,0 3.7477524,2.0108132 0 0 1 3.74805,2.00976 3.7477524,2.0108132 0 0 1 -0.006,0.0527 h 0.0176 V 63.0625 h -0.0312 a 3.7477524,2.0108132 0 0 0 -3.74219,-1.935547 3.7477524,2.0108132 0 0 0 -0.006,0 z"
       id="rect832-9" /><path
       inkscape:connector-curvature="0"
       style="fill:#333333;fill-opacity:1;fill-rule:evenodd;stroke-width:0.9900763"
       d="m 138.45117,133.20508 a 1.3423123,0.93040371 0 0 0 -0.0332,0.002 v 5.4707 l 0.0566,0.19336 1.32812,-4.63281 h -0.0195 a 1.3423123,0.93040371 0 0 0 0.01,-0.10156 1.3423123,0.93040371 0 0 0 -1.3418,-0.93164 z"
       id="rect834-4-5" /><path
       inkscape:connector-curvature="0"
       style="fill:#705800;fill-opacity:1;fill-rule:evenodd"
       d="m 138.42383,61.126953 a 3.7477524,2.0108132 0 0 0 -3.74219,1.935547 h -0.004 v 0.05469 a 3.7477524,2.0108132 0 0 0 -0.002,0.02148 3.7477524,2.0108132 0 0 0 0.002,0.03516 v 7.88867 h 0.004 a 3.7477524,2.0108132 0 0 1 3.74219,-1.935547 3.7477524,2.0108132 0 0 1 3.74219,1.935547 h 0.0312 v -8 h -0.0312 a 3.7477524,2.0108132 0 0 0 -3.74219,-1.935547 z"
       id="rect832-96" /><path
       inkscape:connector-curvature="0"
       style="fill:#56491a;fill-opacity:1;fill-rule:evenodd"
       d="m 138.41797,61.126953 v 8 a 3.7477524,2.0108132 0 0 1 0.006,0 3.7477524,2.0108132 0 0 1 3.74219,1.935547 h 0.0312 v -8 h -0.0312 a 3.7477524,2.0108132 0 0 0 -3.74219,-1.935547 3.7477524,2.0108132 0 0 0 -0.006,0 z"
       id="rect832-96-8" /></g><rect
     ry="7.1438131"
     y="31.222523"
     x="41.203892"
     height="134.48943"
     width="103.00974"
     id="rect1069"
     style="fill:#4fc1ea;fill-opacity:1;fill-rule:evenodd" /><path
     id="rect1071"
     d="m 58.054688,30.826172 c -3.957671,0 -7.144532,3.18686 -7.144532,7.144531 V 141.74805 c 0,3.95767 3.186861,7.14257 7.144532,7.14257 h 48.949222 l 27.5039,-27.24218 V 37.970703 c 0,-3.957671 -3.18686,-7.144531 -7.14453,-7.144531 z"
     style="fill:#ebebeb;fill-opacity:1;fill-rule:evenodd"
     inkscape:connector-curvature="0" /><rect
     style="opacity:0.7;fill:#393939;fill-opacity:0.99607843;stroke-width:1.71562803"
     height="3.9000001"
     width="65.343025"
     class="st0"
     y="50.799305"
     x="60.037472"
     id="XMLID_2180_-2" /><path
     id="rect1073"
     d="m 77.654297,23.695312 v 3.564454 H 67.351562 V 37.5625 H 119.25391 V 27.259766 h -10.30079 v -3.564454 z"
     style="fill:#4d4d4d;fill-opacity:1;fill-rule:evenodd"
     inkscape:connector-curvature="0" /><path
     id="rect1073-5"
     d="M 67.351562,33.03125 V 37.5625 H 119.25391 V 33.03125 Z"
     style="fill:#2c2c2c;fill-opacity:1;fill-rule:evenodd"
     inkscape:connector-curvature="0" /><path
     inkscape:connector-curvature="0"
     id="rect1071-8"
     d="m 107.00391,148.89062 27.5039,-27.24218 h -20.35937 c -3.95767,0 -7.14453,3.1849 -7.14453,7.14257 z"
     style="fill:#9199c7;fill-opacity:1;fill-rule:evenodd" /><rect
     style="opacity:0.7;fill:#393939;fill-opacity:0.99607843;stroke-width:1.71562803"
     height="3.9000001"
     width="65.343025"
     class="st0"
     y="62.799301"
     x="60.037472"
     id="XMLID_2180_-2-2" /><rect
     style="opacity:0.7;fill:#393939;fill-opacity:0.99607843;stroke-width:1.71562803"
     height="3.9000001"
     width="65.343025"
     class="st0"
     y="74.799301"
     x="60.037472"
     id="XMLID_2180_-2-2-4" /><rect
     style="opacity:0.7;fill:#393939;fill-opacity:0.99607843;stroke-width:1.71562803"
     height="3.9000001"
     width="65.343025"
     class="st0"
     y="86.799301"
     x="60.037472"
     id="XMLID_2180_-2-2-4-2" /><rect
     style="opacity:0.7;fill:#393939;fill-opacity:0.99607843;stroke-width:1.71562803"
     height="3.9000001"
     width="65.343025"
     class="st0"
     y="98.799301"
     x="60.037472"
     id="XMLID_2180_-2-2-4-2-7" /><rect
     style="opacity:0.7;fill:#393939;fill-opacity:0.99607843;stroke-width:1.48709702"
     height="3.9000001"
     width="49.094353"
     class="st0"
     y="110.7993"
     x="60.037472"
     id="XMLID_2180_-2-2-4-2-7-8" /></g></svg>