<?xml version="1.0" encoding="UTF-8" standalone="no"?>
<!-- Created with Inkscape (http://www.inkscape.org/) -->

<svg
   xmlns:dc="http://purl.org/dc/elements/1.1/"
   xmlns:cc="http://creativecommons.org/ns#"
   xmlns:rdf="http://www.w3.org/1999/02/22-rdf-syntax-ns#"
   xmlns:svg="http://www.w3.org/2000/svg"
   xmlns="http://www.w3.org/2000/svg"
   xmlns:sodipodi="http://sodipodi.sourceforge.net/DTD/sodipodi-0.dtd"
   xmlns:inkscape="http://www.inkscape.org/namespaces/inkscape"
   width="1300"
   height="205"
   viewBox="0 0 343.95833 54.239585"
   version="1.1"
   id="svg1796"
   inkscape:version="0.92.4 (5da689c313, 2019-01-14)"
   sodipodi:docname="hashelot-header.svg">
  <defs
     id="defs1790" />
  <sodipodi:namedview
     id="base"
     pagecolor="#ffffff"
     bordercolor="#666666"
     borderopacity="1.0"
     inkscape:pageopacity="0.0"
     inkscape:pageshadow="2"
     inkscape:zoom="1.2451615"
     inkscape:cx="734.82183"
     inkscape:cy="321.62427"
     inkscape:document-units="mm"
     inkscape:current-layer="layer1"
     showgrid="false"
     units="px"
     inkscape:window-width="1825"
     inkscape:window-height="1046"
     inkscape:window-x="84"
     inkscape:window-y="-11"
     inkscape:window-maximized="1" />
  <metadata
     id="metadata1793">
    <rdf:RDF>
      <cc:Work
         rdf:about="">
        <dc:format>image/svg+xml</dc:format>
        <dc:type
           rdf:resource="http://purl.org/dc/dcmitype/StillImage" />
        <dc:title />
      </cc:Work>
    </rdf:RDF>
  </metadata>
  <g
     inkscape:label="Layer 1"
     inkscape:groupmode="layer"
     id="layer1"
     transform="translate(0,-242.7604)">
    <g
       style="display:inline;opacity:1"
       id="g1125"
       transform="matrix(0.37840906,0,0,0.37840904,-11.512169,232.03935)">
      <path
         inkscape:export-ydpi="108.37"
         inkscape:export-xdpi="108.37"
         id="rect970-9-7-4"
         transform="scale(0.26458333)"
         d="M 151.18164,151.17969 V 292.89648 H 300.84961 V 151.17969 Z m 303.87305,0 V 292.89648 H 604.72461 V 151.17969 Z M 151.18164,463.00977 V 604.72461 H 300.84961 V 463.00977 Z m 303.87305,0 V 604.72461 H 604.72461 V 463.00977 Z"
         style="display:inline;opacity:1;fill:#ffde5a;fill-opacity:1;fill-rule:evenodd;stroke-width:0.34467372"
         inkscape:connector-curvature="0" />
      <path
         inkscape:export-ydpi="108.37"
         inkscape:export-xdpi="108.37"
         id="rect970-9-7-7-9"
         transform="scale(0.26458333)"
         d="M 455.05469,151.17969 V 292.89648 H 604.72461 V 151.17969 Z m 0,311.83008 V 604.72461 H 604.72461 V 463.00977 Z"
         style="display:inline;opacity:1;fill:#a6913c;fill-opacity:1;fill-rule:evenodd;stroke-width:0.34467372"
         inkscape:connector-curvature="0" />
      <path
         inkscape:export-ydpi="108.37"
         inkscape:export-xdpi="108.37"
         id="rect970-9-8-6-9-6"
         transform="scale(0.26458333)"
         d="m 191.65625,463.00977 109.19336,27.57812 v -27.57812 z m 263.39844,0 v 66.52539 l 149.66992,37.80273 V 463.00977 Z"
         style="display:inline;opacity:0.65;fill:#575757;fill-opacity:1;fill-rule:evenodd;stroke-width:0.34467372"
         inkscape:connector-curvature="0" />
      <path
         inkscape:export-ydpi="108.37"
         inkscape:export-xdpi="108.37"
         id="rect970-9-8-7-8-2"
         transform="scale(0.26458333)"
         d="m 151.18164,307.88086 v 140.14453 h 65.31445 322.91407 65.31445 V 307.88086 H 539.41016 216.49609 Z"
         style="display:inline;opacity:1;fill:#ffcc00;fill-opacity:1;fill-rule:evenodd;stroke:none;stroke-width:14.020504;stroke-linejoin:round;stroke-miterlimit:4;stroke-dasharray:none;stroke-opacity:1;paint-order:normal"
         inkscape:connector-curvature="0" />
    </g>
    <g
       aria-label="HASHELOT"
       transform="matrix(0.26458333,0,0,0.26458333,30.299962,386.39497)"
       style="font-style:normal;font-weight:normal;font-size:40px;line-height:1.25;font-family:sans-serif;letter-spacing:0px;word-spacing:0px;fill:#313131;fill-opacity:1;stroke:none;stroke-width:6.42519712;stroke-miterlimit:4;stroke-dasharray:none"
       id="flowRoot826">
      <path
         d="m 256.06641,-383.14426 h -24.14063 v -49.29688 h -45.23437 v 49.29688 h -24.21875 v -114.21875 h 24.21875 v 44.76562 h 45.23437 v -44.76562 h 24.14063 z"
         style="font-style:normal;font-variant:normal;font-weight:bold;font-stretch:normal;font-size:160px;font-family:'Open Sans';-inkscape-font-specification:'Open Sans Bold';fill:#313131;fill-opacity:1;stroke:#313131;stroke-width:6.42519712;stroke-miterlimit:4;stroke-dasharray:none;stroke-opacity:1"
         id="path821" />
      <path
         d="m 354.89453,-383.14426 -8.28125,-27.1875 h -41.64062 l -8.28125,27.1875 h -26.09375 l 40.3125,-114.6875 h 29.60937 l 40.46875,114.6875 z m -14.0625,-47.5 q -11.48437,-36.95313 -12.96875,-41.79688 -1.40625,-4.84375 -2.03125,-7.65625 -2.57812,10 -14.76562,49.45313 z"
         style="font-style:normal;font-variant:normal;font-weight:bold;font-stretch:normal;font-size:160px;font-family:'Open Sans';-inkscape-font-specification:'Open Sans Bold';fill:#313131;fill-opacity:1;stroke:#313131;stroke-width:6.42519712;stroke-miterlimit:4;stroke-dasharray:none;stroke-opacity:1"
         id="path823" />
      <path
         d="m 462.70703,-414.86301 q 0,15.46875 -11.17187,24.375 -11.09375,8.90625 -30.9375,8.90625 -18.28125,0 -32.34375,-6.875 v -22.5 q 11.5625,5.15625 19.53125,7.26562 8.04687,2.10938 14.6875,2.10938 7.96875,0 12.1875,-3.04688 4.29687,-3.04687 4.29687,-9.0625 0,-3.35937 -1.875,-5.9375 -1.875,-2.65625 -5.54687,-5.07812 -3.59375,-2.42188 -14.76563,-7.73438 -10.46875,-4.92187 -15.70312,-9.45312 -5.23438,-4.53125 -8.35938,-10.54688 -3.125,-6.01562 -3.125,-14.0625 0,-15.15625 10.23438,-23.82812 10.3125,-8.67188 28.4375,-8.67188 8.90625,0 16.95312,2.10938 8.125,2.10937 16.95313,5.9375 l -7.8125,18.82812 q -9.14063,-3.75 -15.15625,-5.23437 -5.9375,-1.48438 -11.71875,-1.48438 -6.875,0 -10.54688,3.20313 -3.67187,3.20312 -3.67187,8.35937 0,3.20313 1.48437,5.625 1.48438,2.34375 4.6875,4.60938 3.28125,2.1875 15.39063,7.96875 16.01562,7.65625 21.95312,15.39062 5.9375,7.65625 5.9375,18.82813 z"
         style="font-style:normal;font-variant:normal;font-weight:bold;font-stretch:normal;font-size:160px;font-family:'Open Sans';-inkscape-font-specification:'Open Sans Bold';fill:#313131;fill-opacity:1;stroke:#313131;stroke-width:6.42519712;stroke-miterlimit:4;stroke-dasharray:none;stroke-opacity:1"
         id="path825" />
      <path
         d="m 577.00391,-383.14426 h -24.14063 v -49.29688 h -45.23437 v 49.29688 h -24.21875 v -114.21875 h 24.21875 v 44.76562 h 45.23437 v -44.76562 h 24.14063 z"
         style="font-style:normal;font-variant:normal;font-weight:bold;font-stretch:normal;font-size:160px;font-family:'Open Sans';-inkscape-font-specification:'Open Sans Bold';fill:#313131;fill-opacity:1;stroke:#313131;stroke-width:6.42519712;stroke-miterlimit:4;stroke-dasharray:none;stroke-opacity:1"
         id="path827" />
      <path
         d="m 671.69141,-383.14426 h -65.78125 v -114.21875 h 65.78125 v 19.84375 h -41.5625 v 25.07812 h 38.67187 v 19.84375 h -38.67187 v 29.45313 h 41.5625 z"
         style="font-style:normal;font-variant:normal;font-weight:bold;font-stretch:normal;font-size:160px;font-family:'Open Sans';-inkscape-font-specification:'Open Sans Bold';fill:#313131;fill-opacity:1;stroke:#313131;stroke-width:6.42519712;stroke-miterlimit:4;stroke-dasharray:none;stroke-opacity:1"
         id="path829" />
      <path
         d="m 695.59766,-383.14426 v -114.21875 h 24.21875 v 94.21875 h 46.32812 v 20 z"
         style="font-style:normal;font-variant:normal;font-weight:bold;font-stretch:normal;font-size:160px;font-family:'Open Sans';-inkscape-font-specification:'Open Sans Bold';fill:#313131;fill-opacity:1;stroke:#313131;stroke-width:6.42519712;stroke-miterlimit:4;stroke-dasharray:none;stroke-opacity:1"
         id="path831" />
      <path
         d="m 889.58203,-440.40989 q 0,28.35938 -14.0625,43.59375 -14.0625,15.23438 -40.3125,15.23438 -26.25,0 -40.3125,-15.23438 -14.0625,-15.23437 -14.0625,-43.75 0,-28.51562 14.0625,-43.51562 14.14063,-15.07813 40.46875,-15.07813 26.32813,0 40.23438,15.15625 13.98437,15.15625 13.98437,43.59375 z m -83.35937,0 q 0,19.14063 7.26562,28.82813 7.26563,9.6875 21.71875,9.6875 28.98438,0 28.98438,-38.51563 0,-38.59375 -28.82813,-38.59375 -14.45312,0 -21.79687,9.76563 -7.34375,9.6875 -7.34375,28.82812 z"
         style="font-style:normal;font-variant:normal;font-weight:bold;font-stretch:normal;font-size:160px;font-family:'Open Sans';-inkscape-font-specification:'Open Sans Bold';fill:#313131;fill-opacity:1;stroke:#313131;stroke-width:6.42519712;stroke-miterlimit:4;stroke-dasharray:none;stroke-opacity:1"
         id="path833" />
      <path
         d="m 957.47266,-383.14426 h -24.21875 v -94.0625 h -31.01563 v -20.15625 h 86.25 v 20.15625 h -31.01562 z"
         style="font-style:normal;font-variant:normal;font-weight:bold;font-stretch:normal;font-size:160px;font-family:'Open Sans';-inkscape-font-specification:'Open Sans Bold';fill:#313131;fill-opacity:1;stroke:#313131;stroke-width:6.42519712;stroke-miterlimit:4;stroke-dasharray:none;stroke-opacity:1"
         id="path835" />
    </g>
  </g>
</svg>
